%TF.GenerationSoftware,KiCad,Pcbnew,8.0.2*%
%TF.CreationDate,2025-02-27T03:45:28+05:30*%
%TF.ProjectId,sra_dev_board_2024(CH340C),7372615f-6465-4765-9f62-6f6172645f32,rev?*%
%TF.SameCoordinates,Original*%
%TF.FileFunction,Other,User*%
%FSLAX46Y46*%
G04 Gerber Fmt 4.6, Leading zero omitted, Abs format (unit mm)*
G04 Created by KiCad (PCBNEW 8.0.2) date 2025-02-27 03:45:28*
%MOMM*%
%LPD*%
G01*
G04 APERTURE LIST*
%ADD10C,0.050000*%
%ADD11C,0.100000*%
G04 APERTURE END LIST*
D10*
%TO.C,J19*%
X160840000Y-106020000D02*
X160840000Y-109620000D01*
X160840000Y-109620000D02*
X172040000Y-109620000D01*
X172040000Y-106020000D02*
X160840000Y-106020000D01*
X172040000Y-109620000D02*
X172040000Y-106020000D01*
%TO.C,R5*%
X140147500Y-59020000D02*
X143507500Y-59020000D01*
X140147500Y-60920000D02*
X140147500Y-59020000D01*
X143507500Y-59020000D02*
X143507500Y-60920000D01*
X143507500Y-60920000D02*
X140147500Y-60920000D01*
%TO.C,R3*%
X135140000Y-63810000D02*
X138500000Y-63810000D01*
X135140000Y-65710000D02*
X135140000Y-63810000D01*
X138500000Y-63810000D02*
X138500000Y-65710000D01*
X138500000Y-65710000D02*
X135140000Y-65710000D01*
%TO.C,R25*%
X133350000Y-112482500D02*
X135250000Y-112482500D01*
X133350000Y-115842500D02*
X133350000Y-112482500D01*
X135250000Y-112482500D02*
X135250000Y-115842500D01*
X135250000Y-115842500D02*
X133350000Y-115842500D01*
%TO.C,D4*%
X161840000Y-78795000D02*
X163300000Y-78795000D01*
X161840000Y-81755000D02*
X161840000Y-78795000D01*
X163300000Y-78795000D02*
X163300000Y-81755000D01*
X163300000Y-81755000D02*
X161840000Y-81755000D01*
%TO.C,R4*%
X144857500Y-69700000D02*
X148217500Y-69700000D01*
X144857500Y-71600000D02*
X144857500Y-69700000D01*
X148217500Y-69700000D02*
X148217500Y-71600000D01*
X148217500Y-71600000D02*
X144857500Y-71600000D01*
%TO.C,C5*%
X144840000Y-64030000D02*
X148240000Y-64030000D01*
X144840000Y-65990000D02*
X144840000Y-64030000D01*
X148240000Y-64030000D02*
X148240000Y-65990000D01*
X148240000Y-65990000D02*
X144840000Y-65990000D01*
%TO.C,J11*%
X170330000Y-60530000D02*
X170330000Y-64130000D01*
X170330000Y-64130000D02*
X184080000Y-64130000D01*
X184080000Y-60530000D02*
X170330000Y-60530000D01*
X184080000Y-64130000D02*
X184080000Y-60530000D01*
D11*
%TO.C,F1*%
X110340000Y-113980000D02*
X115340000Y-113980000D01*
X110340000Y-124880000D02*
X110340000Y-113980000D01*
X115340000Y-113980000D02*
X115340000Y-124880000D01*
X115340000Y-124880000D02*
X110340000Y-124880000D01*
D10*
%TO.C,R8*%
X175020000Y-95710000D02*
X177980000Y-95710000D01*
X175020000Y-97170000D02*
X175020000Y-95710000D01*
X177980000Y-95710000D02*
X177980000Y-97170000D01*
X177980000Y-97170000D02*
X175020000Y-97170000D01*
%TO.C,R23*%
X180460000Y-141787500D02*
X183420000Y-141787500D01*
X180460000Y-143247500D02*
X180460000Y-141787500D01*
X183420000Y-141787500D02*
X183420000Y-143247500D01*
X183420000Y-143247500D02*
X180460000Y-143247500D01*
%TO.C,D5*%
X164300000Y-78812500D02*
X165760000Y-78812500D01*
X164300000Y-81772500D02*
X164300000Y-78812500D01*
X165760000Y-78812500D02*
X165760000Y-81772500D01*
X165760000Y-81772500D02*
X164300000Y-81772500D01*
%TO.C,D14*%
X151810000Y-110540000D02*
X158810000Y-110540000D01*
X151810000Y-114040000D02*
X151810000Y-110540000D01*
X158810000Y-110540000D02*
X158810000Y-114040000D01*
X158810000Y-114040000D02*
X151810000Y-114040000D01*
%TO.C,R20*%
X123120000Y-111450000D02*
X126480000Y-111450000D01*
X123120000Y-113350000D02*
X123120000Y-111450000D01*
X126480000Y-111450000D02*
X126480000Y-113350000D01*
X126480000Y-113350000D02*
X123120000Y-113350000D01*
%TO.C,R21*%
X131610000Y-118042500D02*
X133070000Y-118042500D01*
X131610000Y-121002500D02*
X131610000Y-118042500D01*
X133070000Y-118042500D02*
X133070000Y-121002500D01*
X133070000Y-121002500D02*
X131610000Y-121002500D01*
%TO.C,C1*%
X144870000Y-59000000D02*
X148270000Y-59000000D01*
X144870000Y-60960000D02*
X144870000Y-59000000D01*
X148270000Y-59000000D02*
X148270000Y-60960000D01*
X148270000Y-60960000D02*
X144870000Y-60960000D01*
%TO.C,D15*%
X151852500Y-117322500D02*
X159152500Y-117322500D01*
X151852500Y-121822500D02*
X151852500Y-117322500D01*
X159152500Y-117322500D02*
X159152500Y-121822500D01*
X159152500Y-121822500D02*
X151852500Y-121822500D01*
%TO.C,U4*%
X152165000Y-123340000D02*
X152165000Y-134640000D01*
X152165000Y-134640000D02*
X168815000Y-134640000D01*
X168815000Y-123340000D02*
X152165000Y-123340000D01*
X168815000Y-134640000D02*
X168815000Y-123340000D01*
%TO.C,D12*%
X177330000Y-141810000D02*
X180290000Y-141810000D01*
X177330000Y-143270000D02*
X177330000Y-141810000D01*
X180290000Y-141810000D02*
X180290000Y-143270000D01*
X180290000Y-143270000D02*
X177330000Y-143270000D01*
%TO.C,J5*%
X129210000Y-134250000D02*
X129210000Y-149750000D01*
X129210000Y-149750000D02*
X139210000Y-149750000D01*
X139210000Y-134250000D02*
X129210000Y-134250000D01*
X139210000Y-136150000D02*
X139210000Y-134250000D01*
X139210000Y-149750000D02*
X139210000Y-141150000D01*
X140410000Y-136150000D02*
X139210000Y-136150000D01*
X140410000Y-136150000D02*
X140410000Y-141150000D01*
X140410000Y-141150000D02*
X139210000Y-141150000D01*
%TO.C,D9*%
X119920000Y-111670000D02*
X122880000Y-111670000D01*
X119920000Y-113130000D02*
X119920000Y-111670000D01*
X122880000Y-111670000D02*
X122880000Y-113130000D01*
X122880000Y-113130000D02*
X119920000Y-113130000D01*
%TO.C,R1*%
X144890000Y-61810000D02*
X148250000Y-61810000D01*
X144890000Y-63710000D02*
X144890000Y-61810000D01*
X148250000Y-61810000D02*
X148250000Y-63710000D01*
X148250000Y-63710000D02*
X144890000Y-63710000D01*
%TO.C,D11*%
X117960000Y-59960000D02*
X120920000Y-59960000D01*
X117960000Y-61420000D02*
X117960000Y-59960000D01*
X120920000Y-59960000D02*
X120920000Y-61420000D01*
X120920000Y-61420000D02*
X117960000Y-61420000D01*
%TO.C,H4*%
X190330000Y-58510000D02*
G75*
G02*
X183430000Y-58510000I-3450000J0D01*
G01*
X183430000Y-58510000D02*
G75*
G02*
X190330000Y-58510000I3450000J0D01*
G01*
%TO.C,H1*%
X117330000Y-58510000D02*
G75*
G02*
X110430000Y-58510000I-3450000J0D01*
G01*
X110430000Y-58510000D02*
G75*
G02*
X117330000Y-58510000I3450000J0D01*
G01*
%TO.C,R16*%
X164350000Y-75540000D02*
X165810000Y-75540000D01*
X164350000Y-78500000D02*
X164350000Y-75540000D01*
X165810000Y-75540000D02*
X165810000Y-78500000D01*
X165810000Y-78500000D02*
X164350000Y-78500000D01*
%TO.C,J18*%
X182550000Y-105900000D02*
X182550000Y-113800000D01*
X182550000Y-113800000D02*
X188800000Y-113800000D01*
X188800000Y-105900000D02*
X182550000Y-105900000D01*
X188800000Y-113800000D02*
X188800000Y-105900000D01*
%TO.C,J1*%
X110300000Y-107590000D02*
X110300000Y-111190000D01*
X110300000Y-111190000D02*
X146900000Y-111190000D01*
X146900000Y-107590000D02*
X110300000Y-107590000D01*
X146900000Y-111190000D02*
X146900000Y-107590000D01*
%TO.C,C3*%
X129880000Y-58360000D02*
X133280000Y-58360000D01*
X129880000Y-60320000D02*
X129880000Y-58360000D01*
X133280000Y-58360000D02*
X133280000Y-60320000D01*
X133280000Y-60320000D02*
X129880000Y-60320000D01*
%TO.C,C11*%
X176940000Y-117590000D02*
X180340000Y-117590000D01*
X176940000Y-119550000D02*
X176940000Y-117590000D01*
X180340000Y-117590000D02*
X180340000Y-119550000D01*
X180340000Y-119550000D02*
X176940000Y-119550000D01*
%TO.C,C2*%
X125630000Y-58350000D02*
X129030000Y-58350000D01*
X125630000Y-60310000D02*
X125630000Y-58350000D01*
X129030000Y-58350000D02*
X129030000Y-60310000D01*
X129030000Y-60310000D02*
X125630000Y-60310000D01*
%TO.C,U2*%
X125615000Y-61995000D02*
X125615000Y-72395000D01*
X125615000Y-72395000D02*
X133015000Y-72395000D01*
X133015000Y-61995000D02*
X125615000Y-61995000D01*
X133015000Y-72395000D02*
X133015000Y-61995000D01*
%TO.C,R18*%
X169320000Y-75505000D02*
X170780000Y-75505000D01*
X169320000Y-78465000D02*
X169320000Y-75505000D01*
X170780000Y-75505000D02*
X170780000Y-78465000D01*
X170780000Y-78465000D02*
X169320000Y-78465000D01*
%TO.C,C9*%
X162870000Y-114010000D02*
X166270000Y-114010000D01*
X162870000Y-115970000D02*
X162870000Y-114010000D01*
X166270000Y-114010000D02*
X166270000Y-115970000D01*
X166270000Y-115970000D02*
X162870000Y-115970000D01*
%TO.C,J8*%
X179460000Y-75430000D02*
X179460000Y-79030000D01*
X179460000Y-79030000D02*
X188110000Y-79030000D01*
X188110000Y-75430000D02*
X179460000Y-75430000D01*
X188110000Y-79030000D02*
X188110000Y-75430000D01*
%TO.C,J15*%
X155005000Y-137150000D02*
X155005000Y-140750000D01*
X155005000Y-140750000D02*
X173855000Y-140750000D01*
X173855000Y-137150000D02*
X155005000Y-137150000D01*
X173855000Y-140750000D02*
X173855000Y-137150000D01*
%TO.C,D2*%
X156800000Y-78800000D02*
X158260000Y-78800000D01*
X156800000Y-81760000D02*
X156800000Y-78800000D01*
X158260000Y-78800000D02*
X158260000Y-81760000D01*
X158260000Y-81760000D02*
X156800000Y-81760000D01*
%TO.C,Q2*%
X139960000Y-67007500D02*
X139960000Y-70407500D01*
X139960000Y-70407500D02*
X143800000Y-70407500D01*
X143800000Y-67007500D02*
X139960000Y-67007500D01*
X143800000Y-70407500D02*
X143800000Y-67007500D01*
%TO.C,R7*%
X120840000Y-69020000D02*
X124200000Y-69020000D01*
X120840000Y-70920000D02*
X120840000Y-69020000D01*
X124200000Y-69020000D02*
X124200000Y-70920000D01*
X124200000Y-70920000D02*
X120840000Y-70920000D01*
%TO.C,J13*%
X140460000Y-137590000D02*
X140460000Y-143840000D01*
X140460000Y-143840000D02*
X148360000Y-143840000D01*
X148360000Y-137590000D02*
X140460000Y-137590000D01*
X148360000Y-143840000D02*
X148360000Y-137590000D01*
%TO.C,J2*%
X110550000Y-75340000D02*
X110550000Y-78940000D01*
X110550000Y-78940000D02*
X147150000Y-78940000D01*
X147150000Y-75340000D02*
X110550000Y-75340000D01*
X147150000Y-78940000D02*
X147150000Y-75340000D01*
%TO.C,C10*%
X176960000Y-112760000D02*
X180360000Y-112760000D01*
X176960000Y-114720000D02*
X176960000Y-112760000D01*
X180360000Y-112760000D02*
X180360000Y-114720000D01*
X180360000Y-114720000D02*
X176960000Y-114720000D01*
%TO.C,H3*%
X190080000Y-141510000D02*
G75*
G02*
X183680000Y-141510000I-3200000J0D01*
G01*
X183680000Y-141510000D02*
G75*
G02*
X190080000Y-141510000I3200000J0D01*
G01*
%TO.C,R24*%
X131030000Y-112460000D02*
X132930000Y-112460000D01*
X131030000Y-115820000D02*
X131030000Y-112460000D01*
X132930000Y-112460000D02*
X132930000Y-115820000D01*
X132930000Y-115820000D02*
X131030000Y-115820000D01*
%TO.C,H2*%
X117330000Y-141510000D02*
G75*
G02*
X110430000Y-141510000I-3450000J0D01*
G01*
X110430000Y-141510000D02*
G75*
G02*
X117330000Y-141510000I3450000J0D01*
G01*
%TO.C,SW8*%
X133850000Y-59130000D02*
X139350000Y-59130000D01*
X133850000Y-62530000D02*
X133850000Y-59130000D01*
X139350000Y-59130000D02*
X139350000Y-62530000D01*
X139350000Y-62530000D02*
X133850000Y-62530000D01*
%TO.C,D13*%
X117827500Y-55220000D02*
X124827500Y-55220000D01*
X117827500Y-58720000D02*
X117827500Y-55220000D01*
X124827500Y-55220000D02*
X124827500Y-58720000D01*
X124827500Y-58720000D02*
X117827500Y-58720000D01*
%TO.C,R6*%
X120800000Y-63840000D02*
X124160000Y-63840000D01*
X120800000Y-65740000D02*
X120800000Y-63840000D01*
X124160000Y-63840000D02*
X124160000Y-65740000D01*
X124160000Y-65740000D02*
X120800000Y-65740000D01*
%TO.C,J10*%
X170340000Y-64200000D02*
X170340000Y-67800000D01*
X170340000Y-67800000D02*
X184090000Y-67800000D01*
X184090000Y-64200000D02*
X170340000Y-64200000D01*
X184090000Y-67800000D02*
X184090000Y-64200000D01*
%TO.C,J9*%
X179455000Y-68220000D02*
X179455000Y-71820000D01*
X179455000Y-71820000D02*
X188105000Y-71820000D01*
X188105000Y-68220000D02*
X179455000Y-68220000D01*
X188105000Y-71820000D02*
X188105000Y-68220000D01*
%TO.C,D1*%
X154290000Y-78835000D02*
X155750000Y-78835000D01*
X154290000Y-81795000D02*
X154290000Y-78835000D01*
X155750000Y-78835000D02*
X155750000Y-81795000D01*
X155750000Y-81795000D02*
X154290000Y-81795000D01*
%TO.C,D6*%
X166760000Y-78882500D02*
X168220000Y-78882500D01*
X166760000Y-81842500D02*
X166760000Y-78882500D01*
X168220000Y-78882500D02*
X168220000Y-81842500D01*
X168220000Y-81842500D02*
X166760000Y-81842500D01*
%TO.C,J3*%
X137880000Y-79860000D02*
X137880000Y-106310000D01*
X137880000Y-106310000D02*
X141480000Y-106310000D01*
X141480000Y-79860000D02*
X137880000Y-79860000D01*
X141480000Y-106310000D02*
X141480000Y-79860000D01*
%TO.C,R22*%
X121780000Y-59960000D02*
X124740000Y-59960000D01*
X121780000Y-61420000D02*
X121780000Y-59960000D01*
X124740000Y-59960000D02*
X124740000Y-61420000D01*
X124740000Y-61420000D02*
X121780000Y-61420000D01*
%TO.C,D17*%
X115450000Y-117930000D02*
X118950000Y-117930000D01*
X115450000Y-124930000D02*
X115450000Y-117930000D01*
X118950000Y-117930000D02*
X118950000Y-124930000D01*
X118950000Y-124930000D02*
X115450000Y-124930000D01*
%TO.C,J7*%
X179480000Y-79080000D02*
X179480000Y-82680000D01*
X179480000Y-82680000D02*
X188130000Y-82680000D01*
X188130000Y-79080000D02*
X179480000Y-79080000D01*
X188130000Y-82680000D02*
X188130000Y-79080000D01*
%TO.C,D3*%
X159250000Y-78795000D02*
X160710000Y-78795000D01*
X159250000Y-81755000D02*
X159250000Y-78795000D01*
X160710000Y-78795000D02*
X160710000Y-81755000D01*
X160710000Y-81755000D02*
X159250000Y-81755000D01*
%TO.C,J20*%
X110520000Y-62100000D02*
X110520000Y-72740000D01*
X119940000Y-62100000D02*
X110520000Y-62100000D01*
X119940000Y-62100000D02*
X119940000Y-72740000D01*
X119940000Y-72740000D02*
X110520000Y-72740000D01*
%TO.C,J14*%
X185350000Y-122100000D02*
X185350000Y-137900000D01*
X185350000Y-137900000D02*
X188950000Y-137900000D01*
X188950000Y-122100000D02*
X185350000Y-122100000D01*
X188950000Y-137900000D02*
X188950000Y-122100000D01*
%TO.C,R12*%
X154290000Y-75580000D02*
X155750000Y-75580000D01*
X154290000Y-78540000D02*
X154290000Y-75580000D01*
X155750000Y-75580000D02*
X155750000Y-78540000D01*
X155750000Y-78540000D02*
X154290000Y-78540000D01*
%TO.C,D8*%
X171800000Y-78842500D02*
X173260000Y-78842500D01*
X171800000Y-81802500D02*
X171800000Y-78842500D01*
X173260000Y-78842500D02*
X173260000Y-81802500D01*
X173260000Y-81802500D02*
X171800000Y-81802500D01*
%TO.C,C8*%
X162920000Y-116707500D02*
X166320000Y-116707500D01*
X162920000Y-118667500D02*
X162920000Y-116707500D01*
X166320000Y-116707500D02*
X166320000Y-118667500D01*
X166320000Y-118667500D02*
X162920000Y-118667500D01*
%TO.C,L1*%
X136760000Y-112600000D02*
X136760000Y-123500000D01*
X136760000Y-123500000D02*
X148260000Y-123500000D01*
X148260000Y-112600000D02*
X136760000Y-112600000D01*
X148260000Y-123500000D02*
X148260000Y-112600000D01*
%TO.C,SW7*%
X133860000Y-68850000D02*
X139360000Y-68850000D01*
X133860000Y-72250000D02*
X133860000Y-68850000D01*
X139360000Y-68850000D02*
X139360000Y-72250000D01*
X139360000Y-72250000D02*
X133860000Y-72250000D01*
%TO.C,R2*%
X135140000Y-65890000D02*
X138500000Y-65890000D01*
X135140000Y-67790000D02*
X135140000Y-65890000D01*
X138500000Y-65890000D02*
X138500000Y-67790000D01*
X138500000Y-67790000D02*
X135140000Y-67790000D01*
%TO.C,U1*%
X104010000Y-84180000D02*
X111050000Y-84180000D01*
X104010000Y-102680000D02*
X104010000Y-84180000D01*
X111050000Y-83680000D02*
X130510000Y-83680000D01*
X111050000Y-84180000D02*
X111050000Y-83680000D01*
X111050000Y-102680000D02*
X104010000Y-102680000D01*
X111050000Y-103180000D02*
X111050000Y-102680000D01*
X130510000Y-83680000D02*
X130510000Y-103180000D01*
X130510000Y-103180000D02*
X111050000Y-103180000D01*
%TO.C,J17*%
X182620000Y-114200000D02*
X182620000Y-122100000D01*
X182620000Y-122100000D02*
X188870000Y-122100000D01*
X188870000Y-114200000D02*
X182620000Y-114200000D01*
X188870000Y-122100000D02*
X188870000Y-114200000D01*
%TO.C,C6*%
X141980000Y-127630000D02*
X141980000Y-129730000D01*
X141980000Y-129730000D02*
X143130000Y-129730000D01*
X143130000Y-126280000D02*
X143130000Y-127630000D01*
X143130000Y-126280000D02*
X144280000Y-125130000D01*
X143130000Y-127630000D02*
X141980000Y-127630000D01*
X143130000Y-129730000D02*
X143130000Y-131080000D01*
X143130000Y-131080000D02*
X144280000Y-132230000D01*
X144280000Y-125130000D02*
X150230000Y-125130000D01*
X144280000Y-132230000D02*
X150230000Y-132230000D01*
X150230000Y-125130000D02*
X150230000Y-127630000D01*
X150230000Y-127630000D02*
X151380000Y-127630000D01*
X150230000Y-129730000D02*
X150230000Y-132230000D01*
X151380000Y-127630000D02*
X151380000Y-129730000D01*
X151380000Y-129730000D02*
X150230000Y-129730000D01*
%TO.C,D16*%
X115470000Y-126860000D02*
X119970000Y-126860000D01*
X115470000Y-134160000D02*
X115470000Y-126860000D01*
X119970000Y-126860000D02*
X119970000Y-134160000D01*
X119970000Y-134160000D02*
X115470000Y-134160000D01*
%TO.C,J6*%
X179450000Y-71820000D02*
X179450000Y-75420000D01*
X179450000Y-75420000D02*
X188100000Y-75420000D01*
X188100000Y-71820000D02*
X179450000Y-71820000D01*
X188100000Y-75420000D02*
X188100000Y-71820000D01*
%TO.C,R14*%
X159360000Y-75595000D02*
X160820000Y-75595000D01*
X159360000Y-78555000D02*
X159360000Y-75595000D01*
X160820000Y-75595000D02*
X160820000Y-78555000D01*
X160820000Y-78555000D02*
X159360000Y-78555000D01*
%TO.C,R17*%
X166800000Y-75545000D02*
X168260000Y-75545000D01*
X166800000Y-78505000D02*
X166800000Y-75545000D01*
X168260000Y-75545000D02*
X168260000Y-78505000D01*
X168260000Y-78505000D02*
X166800000Y-78505000D01*
%TO.C,R13*%
X156850000Y-75595000D02*
X158310000Y-75595000D01*
X156850000Y-78555000D02*
X156850000Y-75595000D01*
X158310000Y-75595000D02*
X158310000Y-78555000D01*
X158310000Y-78555000D02*
X156850000Y-78555000D01*
%TO.C,R10*%
X179745000Y-90610000D02*
X182705000Y-90610000D01*
X179745000Y-92070000D02*
X179745000Y-90610000D01*
X182705000Y-90610000D02*
X182705000Y-92070000D01*
X182705000Y-92070000D02*
X179745000Y-92070000D01*
%TO.C,C7*%
X131082500Y-126960000D02*
X131082500Y-129960000D01*
X131082500Y-129960000D02*
X131932500Y-129960000D01*
X131932500Y-125210000D02*
X131932500Y-126960000D01*
X131932500Y-125210000D02*
X133082500Y-124060000D01*
X131932500Y-126960000D02*
X131082500Y-126960000D01*
X131932500Y-129960000D02*
X131932500Y-131710000D01*
X131932500Y-131710000D02*
X133082500Y-132860000D01*
X133082500Y-124060000D02*
X140732500Y-124060000D01*
X133082500Y-132860000D02*
X140732500Y-132860000D01*
X140732500Y-124060000D02*
X140732500Y-126960000D01*
X140732500Y-126960000D02*
X141582500Y-126960000D01*
X140732500Y-129960000D02*
X140732500Y-132860000D01*
X141582500Y-126960000D02*
X141582500Y-129960000D01*
X141582500Y-129960000D02*
X140732500Y-129960000D01*
%TO.C,J4*%
X118100000Y-136960000D02*
X118100000Y-144960000D01*
X118100000Y-136960000D02*
X128600000Y-136960000D01*
X128600000Y-144960000D02*
X118100000Y-144960000D01*
X128600000Y-144960000D02*
X128600000Y-136960000D01*
%TO.C,R19*%
X171770000Y-75470000D02*
X173230000Y-75470000D01*
X171770000Y-78430000D02*
X171770000Y-75470000D01*
X173230000Y-75470000D02*
X173230000Y-78430000D01*
X173230000Y-78430000D02*
X171770000Y-78430000D01*
%TO.C,J16*%
X143595000Y-97950000D02*
X143595000Y-101550000D01*
X143595000Y-101550000D02*
X164945000Y-101550000D01*
X164945000Y-97950000D02*
X143595000Y-97950000D01*
X164945000Y-101550000D02*
X164945000Y-97950000D01*
%TO.C,REF\u002A\u002A*%
X163650000Y-88500000D02*
G75*
G02*
X158750000Y-88500000I-2450000J0D01*
G01*
X158750000Y-88500000D02*
G75*
G02*
X163650000Y-88500000I2450000J0D01*
G01*
%TO.C,D10*%
X133460000Y-118042500D02*
X134920000Y-118042500D01*
X133460000Y-121002500D02*
X133460000Y-118042500D01*
X134920000Y-118042500D02*
X134920000Y-121002500D01*
X134920000Y-121002500D02*
X133460000Y-121002500D01*
D11*
%TO.C,F2*%
X110470000Y-124960000D02*
X115470000Y-124960000D01*
X110470000Y-135860000D02*
X110470000Y-124960000D01*
X115470000Y-124960000D02*
X115470000Y-135860000D01*
X115470000Y-135860000D02*
X110470000Y-135860000D01*
D10*
%TO.C,REF\u002A\u002A*%
X148750000Y-88500000D02*
G75*
G02*
X143850000Y-88500000I-2450000J0D01*
G01*
X143850000Y-88500000D02*
G75*
G02*
X148750000Y-88500000I2450000J0D01*
G01*
%TO.C,Q1*%
X139920000Y-62340000D02*
X139920000Y-65740000D01*
X139920000Y-65740000D02*
X143760000Y-65740000D01*
X143760000Y-62340000D02*
X139920000Y-62340000D01*
X143760000Y-65740000D02*
X143760000Y-62340000D01*
%TO.C,R15*%
X161860000Y-75585000D02*
X163320000Y-75585000D01*
X161860000Y-78545000D02*
X161860000Y-75585000D01*
X163320000Y-75585000D02*
X163320000Y-78545000D01*
X163320000Y-78545000D02*
X161860000Y-78545000D01*
%TO.C,C4*%
X144850000Y-67240000D02*
X148250000Y-67240000D01*
X144850000Y-69200000D02*
X144850000Y-67240000D01*
X148250000Y-67240000D02*
X148250000Y-69200000D01*
X148250000Y-69200000D02*
X144850000Y-69200000D01*
%TO.C,R11*%
X179625000Y-95720000D02*
X182585000Y-95720000D01*
X179625000Y-97180000D02*
X179625000Y-95720000D01*
X182585000Y-95720000D02*
X182585000Y-97180000D01*
X182585000Y-97180000D02*
X179625000Y-97180000D01*
%TO.C,R9*%
X175045000Y-90620000D02*
X178005000Y-90620000D01*
X175045000Y-92080000D02*
X175045000Y-90620000D01*
X178005000Y-90620000D02*
X178005000Y-92080000D01*
X178005000Y-92080000D02*
X175045000Y-92080000D01*
%TO.C,D7*%
X169310000Y-78852500D02*
X170770000Y-78852500D01*
X169310000Y-81812500D02*
X169310000Y-78852500D01*
X170770000Y-78852500D02*
X170770000Y-81812500D01*
X170770000Y-81812500D02*
X169310000Y-81812500D01*
%TO.C,U5*%
X166930000Y-112717500D02*
X166930000Y-119917500D01*
X166930000Y-119917500D02*
X175730000Y-119917500D01*
X175730000Y-112717500D02*
X166930000Y-112717500D01*
X175730000Y-119917500D02*
X175730000Y-112717500D01*
%TD*%
M02*
