M48
; DRILL file {KiCad 8.0.2} date 2025-02-27T03:45:31+0530
; FORMAT={-:-/ absolute / inch / decimal}
; #@! TF.CreationDate,2025-02-27T03:45:31+05:30
; #@! TF.GenerationSoftware,Kicad,Pcbnew,8.0.2
; #@! TF.FileFunction,Plated,1,2,PTH
FMAT,2
INCH
; #@! TA.AperFunction,Plated,PTH,ComponentDrill
T1C0.0079
; #@! TA.AperFunction,Plated,PTH,ViaDrill
T2C0.0118
; #@! TA.AperFunction,Plated,PTH,ViaDrill
T3C0.0197
; #@! TA.AperFunction,Plated,PTH,ViaDrill
T4C0.0236
; #@! TA.AperFunction,Plated,PTH,ComponentDrill
T5C0.0236
; #@! TA.AperFunction,Plated,PTH,ViaDrill
T6C0.0276
; #@! TA.AperFunction,Plated,PTH,ComponentDrill
T7C0.0315
; #@! TA.AperFunction,Plated,PTH,ComponentDrill
T8C0.0320
; #@! TA.AperFunction,Plated,PTH,ComponentDrill
T9C0.0394
; #@! TA.AperFunction,Plated,PTH,ComponentDrill
T10C0.0413
; #@! TA.AperFunction,Plated,PTH,ComponentDrill
T11C0.0598
%
G90
G05
T1
X4.6484Y-3.7098
X4.6484Y-3.765
X4.676Y-3.6823
X4.676Y-3.7374
X4.676Y-3.7925
X4.7035Y-3.7098
X4.7035Y-3.765
X4.7311Y-3.6823
X4.7311Y-3.7374
X4.7311Y-3.7925
X4.7587Y-3.7098
X4.7587Y-3.765
T2
X4.4843Y-4.3898
X4.4996Y-3.9276
X4.6614Y-4.9386
X4.7228Y-5.1469
X4.7524Y-2.6224
X4.8943Y-2.6978
X4.9122Y-3.9047
X5.0516Y-2.2417
X5.0638Y-2.6201
X5.0843Y-5.2457
X5.1291Y-2.5047
X5.1752Y-5.2157
X5.3858Y-2.5906
X5.408Y-2.3949
X5.5Y-2.4839
X5.5272Y-4.411
X5.5571Y-3.6638
X5.5618Y-2.8059
X5.565Y-4.0988
X5.6134Y-3.9252
X5.6134Y-4.1937
X5.6165Y-4.9339
X5.6409Y-3.9717
X5.6736Y-2.3587
X5.6783Y-2.4866
X5.6988Y-4.1634
X5.7268Y-2.6882
X5.7677Y-2.9417
X5.7689Y-4.0988
X5.8496Y-5.2672
X5.8618Y-4.063
X5.8689Y-4.526
X5.8874Y-2.9059
X5.9252Y-3.3075
X5.9748Y-5.2094
X6.0285Y-4.283
X6.0602Y-4.8717
X6.063Y-3.3457
X6.0902Y-3.5953
X6.1079Y-2.4315
X6.1094Y-2.6827
X6.1518Y-4.1553
X6.178Y-4.8717
X6.2524Y-4.2445
X6.2839Y-4.8276
X6.3622Y-4.4492
X6.3665Y-2.902
X6.4146Y-3.3953
X6.4646Y-3.6736
X6.5045Y-3.3033
X6.5083Y-2.7189
X6.5118Y-4.0878
X6.5157Y-3.3703
X6.524Y-3.6807
X6.539Y-2.4445
X6.5811Y-2.8374
X6.5902Y-5.1992
X6.6429Y-3.8365
X6.728Y-4.1685
X6.7374Y-3.9106
X6.7563Y-4.5752
X6.7673Y-2.8374
X6.7756Y-3.8276
X6.8142Y-4.1685
X6.8504Y-3.1937
X6.9531Y-3.2819
X6.9646Y-5.2917
X7.05Y-3.6795
X7.0626Y-3.5917
X7.0933Y-3.3118
X7.2307Y-3.9535
X7.2917Y-4.1783
T3
X4.8476Y-4.8807
X5.0921Y-4.7488
X5.1008Y-4.8801
X6.724Y-2.7059
X6.7618Y-4.7957
X6.8193Y-4.3756
T4
X5.3614Y-4.8315
T6
X5.8516Y-4.7425
X5.9748Y-4.8657
X6.126Y-4.6323
X6.8106Y-4.6984
T7
X4.4476Y-5.0348
X4.4476Y-5.2337
T8
X4.8256Y-4.5996
X4.8256Y-4.6996
X4.8256Y-4.7996
X4.8264Y-4.9646
X4.8264Y-5.0646
X4.8264Y-5.1646
X5.0256Y-4.5996
X5.0256Y-4.6996
X5.0256Y-4.7996
X5.0264Y-4.9646
X5.0264Y-5.0646
X5.0264Y-5.1646
T9
X4.4134Y-4.3067
X4.4232Y-3.037
X4.4425Y-4.6026
X4.4425Y-4.8014
X4.5134Y-4.3067
X4.5232Y-3.037
X4.6134Y-4.3067
X4.6232Y-3.037
X4.7134Y-4.3067
X4.7232Y-3.037
X4.8134Y-4.3067
X4.8232Y-3.037
X4.9134Y-4.3067
X4.9232Y-3.037
X5.0134Y-4.3067
X5.0232Y-3.037
X5.1134Y-4.3067
X5.1232Y-3.037
X5.2134Y-4.3067
X5.2232Y-3.037
X5.3134Y-4.3067
X5.3232Y-3.037
X5.4134Y-4.3067
X5.4232Y-3.037
X5.4992Y-3.2146
X5.4992Y-3.3146
X5.4992Y-3.4146
X5.4992Y-3.5146
X5.4992Y-3.6146
X5.4992Y-3.7146
X5.4992Y-3.8146
X5.4992Y-3.9146
X5.4992Y-4.0146
X5.4992Y-4.1146
X5.5134Y-4.3067
X5.5232Y-3.037
X5.6134Y-4.3067
X5.6232Y-3.037
X5.7134Y-4.3067
X5.7232Y-3.037
X5.7242Y-3.9272
X5.8242Y-3.9272
X5.9242Y-3.9272
X6.0242Y-3.9272
X6.1242Y-3.9272
X6.1734Y-5.4705
X6.2242Y-3.9272
X6.2734Y-5.4705
X6.3242Y-3.9272
X6.3734Y-5.4705
X6.4031Y-4.2449
X6.4242Y-3.9272
X6.4734Y-5.4705
X6.5031Y-4.2449
X6.5734Y-5.4705
X6.6031Y-4.2449
X6.6591Y-3.4295
X6.6591Y-4.0395
X6.6734Y-5.4705
X6.7031Y-4.2449
X6.7591Y-3.4295
X6.7591Y-4.0395
X6.7701Y-2.3098
X6.7734Y-5.4705
X6.7768Y-2.4539
X6.7772Y-2.5984
X6.8591Y-3.4295
X6.8591Y-4.0395
X6.8701Y-2.3098
X6.8768Y-2.4539
X6.8772Y-2.5984
X6.9591Y-3.4295
X6.9591Y-4.0395
X6.9701Y-2.3098
X6.9768Y-2.4539
X6.9772Y-2.5984
X7.0591Y-3.4295
X7.0591Y-4.0395
X7.0701Y-2.3098
X7.0768Y-2.4539
X7.0772Y-2.5984
X7.1358Y-2.8984
X7.136Y-2.7567
X7.1362Y-3.0406
X7.137Y-3.1843
X7.1591Y-3.4295
X7.1591Y-4.0395
X7.1701Y-2.3098
X7.1768Y-2.4539
X7.1772Y-2.5984
X7.2358Y-2.8984
X7.236Y-2.7567
X7.2362Y-3.0406
X7.237Y-3.1843
X7.2591Y-3.4295
X7.2591Y-4.0395
X7.3358Y-2.8984
X7.336Y-2.7567
X7.3362Y-3.0406
X7.337Y-3.1843
X7.3591Y-3.4295
X7.3591Y-4.0395
X7.3681Y-4.878
X7.3681Y-4.978
X7.3681Y-5.078
X7.3681Y-5.178
X7.3681Y-5.278
X7.3681Y-5.378
T10
X5.6362Y-5.5606
X5.7346Y-5.5606
X7.3307Y-4.2756
X7.3307Y-4.374
X7.3335Y-4.6024
X7.3335Y-4.7008
T11
X4.7563Y-5.5496
X4.9563Y-5.5496
T5
G00X4.485Y-2.4843
M15
G01X4.4614Y-2.4843
M16
G05
G00X4.485Y-2.8244
M15
G01X4.4614Y-2.8244
M16
G05
G00X4.6594Y-2.4843
M15
G01X4.6161Y-2.4843
M16
G05
G00X4.6594Y-2.8244
M15
G01X4.6161Y-2.8244
M16
G05
T7
G00X5.2327Y-5.3406
M15
G01X5.335Y-5.3406
M16
G05
G00X5.2406Y-5.5689
M15
G01X5.3272Y-5.5689
M16
G05
G00X5.4728Y-5.502
M15
G01X5.4728Y-5.4154
M16
G05
M30
