%TF.GenerationSoftware,KiCad,Pcbnew,8.0.2*%
%TF.CreationDate,2025-02-27T03:45:31+05:30*%
%TF.ProjectId,sra_dev_board_2024(CH340C),7372615f-6465-4765-9f62-6f6172645f32,rev?*%
%TF.SameCoordinates,Original*%
%TF.FileFunction,Drillmap*%
%TF.FilePolarity,Positive*%
%FSLAX45Y45*%
G04 Gerber Fmt 4.5, Leading zero omitted, Abs format (unit mm)*
G04 Created by KiCad (PCBNEW 8.0.2) date 2025-02-27 03:45:31*
%MOMM*%
%LPD*%
G01*
G04 APERTURE LIST*
%ADD10C,0.100000*%
%ADD11C,0.200000*%
%ADD12C,0.220000*%
%ADD13C,0.320000*%
G04 APERTURE END LIST*
D10*
X11038000Y-5901000D02*
G75*
G02*
X11438000Y-5501000I400000J0D01*
G01*
X18638000Y-5501000D02*
G75*
G02*
X19038000Y-5901000I0J-400000D01*
G01*
X11438000Y-14501000D02*
X18638000Y-14501000D01*
X19038000Y-14101000D02*
G75*
G02*
X18638000Y-14501000I-400000J0D01*
G01*
X11438000Y-14501000D02*
G75*
G02*
X11038000Y-14101000I0J400000D01*
G01*
X19038000Y-5901000D02*
X19038000Y-14101000D01*
X11438000Y-5501000D02*
X18638000Y-5501000D01*
X11038000Y-5901000D02*
X11038000Y-14101000D01*
D11*
D10*
X11694500Y-6420500D02*
X11759500Y-6485500D01*
X11759500Y-6420500D02*
X11694500Y-6485500D01*
X11694500Y-6998500D02*
X11759500Y-7063500D01*
X11759500Y-6998500D02*
X11694500Y-7063500D01*
D12*
X14740000Y-8850000D02*
G75*
G02*
X14520000Y-8850000I-110000J0D01*
G01*
X14520000Y-8850000D02*
G75*
G02*
X14740000Y-8850000I110000J0D01*
G01*
X16230000Y-8850000D02*
G75*
G02*
X16010000Y-8850000I-110000J0D01*
G01*
X16010000Y-8850000D02*
G75*
G02*
X16230000Y-8850000I110000J0D01*
G01*
D13*
X11388000Y-5691000D02*
X11388000Y-6011000D01*
X11228000Y-5851000D02*
X11548000Y-5851000D01*
X11388000Y-13991000D02*
X11388000Y-14311000D01*
X11228000Y-14151000D02*
X11548000Y-14151000D01*
X18688000Y-5691000D02*
X18688000Y-6011000D01*
X18528000Y-5851000D02*
X18848000Y-5851000D01*
X18688000Y-13991000D02*
X18688000Y-14311000D01*
X18528000Y-14151000D02*
X18848000Y-14151000D01*
D11*
X11293777Y-14817484D02*
X11293777Y-14617484D01*
X11293777Y-14617484D02*
X11341396Y-14617484D01*
X11341396Y-14617484D02*
X11369967Y-14627008D01*
X11369967Y-14627008D02*
X11389015Y-14646055D01*
X11389015Y-14646055D02*
X11398539Y-14665103D01*
X11398539Y-14665103D02*
X11408062Y-14703198D01*
X11408062Y-14703198D02*
X11408062Y-14731769D01*
X11408062Y-14731769D02*
X11398539Y-14769865D01*
X11398539Y-14769865D02*
X11389015Y-14788912D01*
X11389015Y-14788912D02*
X11369967Y-14807960D01*
X11369967Y-14807960D02*
X11341396Y-14817484D01*
X11341396Y-14817484D02*
X11293777Y-14817484D01*
X11493777Y-14817484D02*
X11493777Y-14684150D01*
X11493777Y-14722246D02*
X11503301Y-14703198D01*
X11503301Y-14703198D02*
X11512824Y-14693674D01*
X11512824Y-14693674D02*
X11531872Y-14684150D01*
X11531872Y-14684150D02*
X11550920Y-14684150D01*
X11617586Y-14817484D02*
X11617586Y-14684150D01*
X11617586Y-14617484D02*
X11608062Y-14627008D01*
X11608062Y-14627008D02*
X11617586Y-14636531D01*
X11617586Y-14636531D02*
X11627110Y-14627008D01*
X11627110Y-14627008D02*
X11617586Y-14617484D01*
X11617586Y-14617484D02*
X11617586Y-14636531D01*
X11741396Y-14817484D02*
X11722348Y-14807960D01*
X11722348Y-14807960D02*
X11712824Y-14788912D01*
X11712824Y-14788912D02*
X11712824Y-14617484D01*
X11846158Y-14817484D02*
X11827110Y-14807960D01*
X11827110Y-14807960D02*
X11817586Y-14788912D01*
X11817586Y-14788912D02*
X11817586Y-14617484D01*
X12074729Y-14817484D02*
X12074729Y-14617484D01*
X12074729Y-14617484D02*
X12141396Y-14760341D01*
X12141396Y-14760341D02*
X12208062Y-14617484D01*
X12208062Y-14617484D02*
X12208062Y-14817484D01*
X12389015Y-14817484D02*
X12389015Y-14712722D01*
X12389015Y-14712722D02*
X12379491Y-14693674D01*
X12379491Y-14693674D02*
X12360443Y-14684150D01*
X12360443Y-14684150D02*
X12322348Y-14684150D01*
X12322348Y-14684150D02*
X12303301Y-14693674D01*
X12389015Y-14807960D02*
X12369967Y-14817484D01*
X12369967Y-14817484D02*
X12322348Y-14817484D01*
X12322348Y-14817484D02*
X12303301Y-14807960D01*
X12303301Y-14807960D02*
X12293777Y-14788912D01*
X12293777Y-14788912D02*
X12293777Y-14769865D01*
X12293777Y-14769865D02*
X12303301Y-14750817D01*
X12303301Y-14750817D02*
X12322348Y-14741293D01*
X12322348Y-14741293D02*
X12369967Y-14741293D01*
X12369967Y-14741293D02*
X12389015Y-14731769D01*
X12484253Y-14684150D02*
X12484253Y-14884150D01*
X12484253Y-14693674D02*
X12503301Y-14684150D01*
X12503301Y-14684150D02*
X12541396Y-14684150D01*
X12541396Y-14684150D02*
X12560443Y-14693674D01*
X12560443Y-14693674D02*
X12569967Y-14703198D01*
X12569967Y-14703198D02*
X12579491Y-14722246D01*
X12579491Y-14722246D02*
X12579491Y-14779388D01*
X12579491Y-14779388D02*
X12569967Y-14798436D01*
X12569967Y-14798436D02*
X12560443Y-14807960D01*
X12560443Y-14807960D02*
X12541396Y-14817484D01*
X12541396Y-14817484D02*
X12503301Y-14817484D01*
X12503301Y-14817484D02*
X12484253Y-14807960D01*
X12665205Y-14798436D02*
X12674729Y-14807960D01*
X12674729Y-14807960D02*
X12665205Y-14817484D01*
X12665205Y-14817484D02*
X12655682Y-14807960D01*
X12655682Y-14807960D02*
X12665205Y-14798436D01*
X12665205Y-14798436D02*
X12665205Y-14817484D01*
X12665205Y-14693674D02*
X12674729Y-14703198D01*
X12674729Y-14703198D02*
X12665205Y-14712722D01*
X12665205Y-14712722D02*
X12655682Y-14703198D01*
X12655682Y-14703198D02*
X12665205Y-14693674D01*
X12665205Y-14693674D02*
X12665205Y-14712722D01*
D10*
X10968000Y-15113500D02*
X11033000Y-15178500D01*
X11033000Y-15113500D02*
X10968000Y-15178500D01*
D11*
X11331872Y-15037484D02*
X11350920Y-15037484D01*
X11350920Y-15037484D02*
X11369967Y-15047008D01*
X11369967Y-15047008D02*
X11379491Y-15056531D01*
X11379491Y-15056531D02*
X11389015Y-15075579D01*
X11389015Y-15075579D02*
X11398539Y-15113674D01*
X11398539Y-15113674D02*
X11398539Y-15161293D01*
X11398539Y-15161293D02*
X11389015Y-15199388D01*
X11389015Y-15199388D02*
X11379491Y-15218436D01*
X11379491Y-15218436D02*
X11369967Y-15227960D01*
X11369967Y-15227960D02*
X11350920Y-15237484D01*
X11350920Y-15237484D02*
X11331872Y-15237484D01*
X11331872Y-15237484D02*
X11312824Y-15227960D01*
X11312824Y-15227960D02*
X11303301Y-15218436D01*
X11303301Y-15218436D02*
X11293777Y-15199388D01*
X11293777Y-15199388D02*
X11284253Y-15161293D01*
X11284253Y-15161293D02*
X11284253Y-15113674D01*
X11284253Y-15113674D02*
X11293777Y-15075579D01*
X11293777Y-15075579D02*
X11303301Y-15056531D01*
X11303301Y-15056531D02*
X11312824Y-15047008D01*
X11312824Y-15047008D02*
X11331872Y-15037484D01*
X11484253Y-15218436D02*
X11493777Y-15227960D01*
X11493777Y-15227960D02*
X11484253Y-15237484D01*
X11484253Y-15237484D02*
X11474729Y-15227960D01*
X11474729Y-15227960D02*
X11484253Y-15218436D01*
X11484253Y-15218436D02*
X11484253Y-15237484D01*
X11665205Y-15037484D02*
X11627110Y-15037484D01*
X11627110Y-15037484D02*
X11608062Y-15047008D01*
X11608062Y-15047008D02*
X11598539Y-15056531D01*
X11598539Y-15056531D02*
X11579491Y-15085103D01*
X11579491Y-15085103D02*
X11569967Y-15123198D01*
X11569967Y-15123198D02*
X11569967Y-15199388D01*
X11569967Y-15199388D02*
X11579491Y-15218436D01*
X11579491Y-15218436D02*
X11589015Y-15227960D01*
X11589015Y-15227960D02*
X11608062Y-15237484D01*
X11608062Y-15237484D02*
X11646158Y-15237484D01*
X11646158Y-15237484D02*
X11665205Y-15227960D01*
X11665205Y-15227960D02*
X11674729Y-15218436D01*
X11674729Y-15218436D02*
X11684253Y-15199388D01*
X11684253Y-15199388D02*
X11684253Y-15151769D01*
X11684253Y-15151769D02*
X11674729Y-15132722D01*
X11674729Y-15132722D02*
X11665205Y-15123198D01*
X11665205Y-15123198D02*
X11646158Y-15113674D01*
X11646158Y-15113674D02*
X11608062Y-15113674D01*
X11608062Y-15113674D02*
X11589015Y-15123198D01*
X11589015Y-15123198D02*
X11579491Y-15132722D01*
X11579491Y-15132722D02*
X11569967Y-15151769D01*
X11865205Y-15037484D02*
X11769967Y-15037484D01*
X11769967Y-15037484D02*
X11760443Y-15132722D01*
X11760443Y-15132722D02*
X11769967Y-15123198D01*
X11769967Y-15123198D02*
X11789015Y-15113674D01*
X11789015Y-15113674D02*
X11836634Y-15113674D01*
X11836634Y-15113674D02*
X11855682Y-15123198D01*
X11855682Y-15123198D02*
X11865205Y-15132722D01*
X11865205Y-15132722D02*
X11874729Y-15151769D01*
X11874729Y-15151769D02*
X11874729Y-15199388D01*
X11874729Y-15199388D02*
X11865205Y-15218436D01*
X11865205Y-15218436D02*
X11855682Y-15227960D01*
X11855682Y-15227960D02*
X11836634Y-15237484D01*
X11836634Y-15237484D02*
X11789015Y-15237484D01*
X11789015Y-15237484D02*
X11769967Y-15227960D01*
X11769967Y-15227960D02*
X11760443Y-15218436D01*
X11998539Y-15037484D02*
X12017586Y-15037484D01*
X12017586Y-15037484D02*
X12036634Y-15047008D01*
X12036634Y-15047008D02*
X12046158Y-15056531D01*
X12046158Y-15056531D02*
X12055682Y-15075579D01*
X12055682Y-15075579D02*
X12065205Y-15113674D01*
X12065205Y-15113674D02*
X12065205Y-15161293D01*
X12065205Y-15161293D02*
X12055682Y-15199388D01*
X12055682Y-15199388D02*
X12046158Y-15218436D01*
X12046158Y-15218436D02*
X12036634Y-15227960D01*
X12036634Y-15227960D02*
X12017586Y-15237484D01*
X12017586Y-15237484D02*
X11998539Y-15237484D01*
X11998539Y-15237484D02*
X11979491Y-15227960D01*
X11979491Y-15227960D02*
X11969967Y-15218436D01*
X11969967Y-15218436D02*
X11960443Y-15199388D01*
X11960443Y-15199388D02*
X11950920Y-15161293D01*
X11950920Y-15161293D02*
X11950920Y-15113674D01*
X11950920Y-15113674D02*
X11960443Y-15075579D01*
X11960443Y-15075579D02*
X11969967Y-15056531D01*
X11969967Y-15056531D02*
X11979491Y-15047008D01*
X11979491Y-15047008D02*
X11998539Y-15037484D01*
X12150920Y-15237484D02*
X12150920Y-15104150D01*
X12150920Y-15123198D02*
X12160443Y-15113674D01*
X12160443Y-15113674D02*
X12179491Y-15104150D01*
X12179491Y-15104150D02*
X12208063Y-15104150D01*
X12208063Y-15104150D02*
X12227110Y-15113674D01*
X12227110Y-15113674D02*
X12236634Y-15132722D01*
X12236634Y-15132722D02*
X12236634Y-15237484D01*
X12236634Y-15132722D02*
X12246158Y-15113674D01*
X12246158Y-15113674D02*
X12265205Y-15104150D01*
X12265205Y-15104150D02*
X12293777Y-15104150D01*
X12293777Y-15104150D02*
X12312824Y-15113674D01*
X12312824Y-15113674D02*
X12322348Y-15132722D01*
X12322348Y-15132722D02*
X12322348Y-15237484D01*
X12417586Y-15237484D02*
X12417586Y-15104150D01*
X12417586Y-15123198D02*
X12427110Y-15113674D01*
X12427110Y-15113674D02*
X12446158Y-15104150D01*
X12446158Y-15104150D02*
X12474729Y-15104150D01*
X12474729Y-15104150D02*
X12493777Y-15113674D01*
X12493777Y-15113674D02*
X12503301Y-15132722D01*
X12503301Y-15132722D02*
X12503301Y-15237484D01*
X12503301Y-15132722D02*
X12512824Y-15113674D01*
X12512824Y-15113674D02*
X12531872Y-15104150D01*
X12531872Y-15104150D02*
X12560443Y-15104150D01*
X12560443Y-15104150D02*
X12579491Y-15113674D01*
X12579491Y-15113674D02*
X12589015Y-15132722D01*
X12589015Y-15132722D02*
X12589015Y-15237484D01*
X12979491Y-15027960D02*
X12808063Y-15285103D01*
X13236634Y-15037484D02*
X13255682Y-15037484D01*
X13255682Y-15037484D02*
X13274729Y-15047008D01*
X13274729Y-15047008D02*
X13284253Y-15056531D01*
X13284253Y-15056531D02*
X13293777Y-15075579D01*
X13293777Y-15075579D02*
X13303301Y-15113674D01*
X13303301Y-15113674D02*
X13303301Y-15161293D01*
X13303301Y-15161293D02*
X13293777Y-15199388D01*
X13293777Y-15199388D02*
X13284253Y-15218436D01*
X13284253Y-15218436D02*
X13274729Y-15227960D01*
X13274729Y-15227960D02*
X13255682Y-15237484D01*
X13255682Y-15237484D02*
X13236634Y-15237484D01*
X13236634Y-15237484D02*
X13217586Y-15227960D01*
X13217586Y-15227960D02*
X13208063Y-15218436D01*
X13208063Y-15218436D02*
X13198539Y-15199388D01*
X13198539Y-15199388D02*
X13189015Y-15161293D01*
X13189015Y-15161293D02*
X13189015Y-15113674D01*
X13189015Y-15113674D02*
X13198539Y-15075579D01*
X13198539Y-15075579D02*
X13208063Y-15056531D01*
X13208063Y-15056531D02*
X13217586Y-15047008D01*
X13217586Y-15047008D02*
X13236634Y-15037484D01*
X13389015Y-15218436D02*
X13398539Y-15227960D01*
X13398539Y-15227960D02*
X13389015Y-15237484D01*
X13389015Y-15237484D02*
X13379491Y-15227960D01*
X13379491Y-15227960D02*
X13389015Y-15218436D01*
X13389015Y-15218436D02*
X13389015Y-15237484D01*
X13522348Y-15037484D02*
X13541396Y-15037484D01*
X13541396Y-15037484D02*
X13560444Y-15047008D01*
X13560444Y-15047008D02*
X13569967Y-15056531D01*
X13569967Y-15056531D02*
X13579491Y-15075579D01*
X13579491Y-15075579D02*
X13589015Y-15113674D01*
X13589015Y-15113674D02*
X13589015Y-15161293D01*
X13589015Y-15161293D02*
X13579491Y-15199388D01*
X13579491Y-15199388D02*
X13569967Y-15218436D01*
X13569967Y-15218436D02*
X13560444Y-15227960D01*
X13560444Y-15227960D02*
X13541396Y-15237484D01*
X13541396Y-15237484D02*
X13522348Y-15237484D01*
X13522348Y-15237484D02*
X13503301Y-15227960D01*
X13503301Y-15227960D02*
X13493777Y-15218436D01*
X13493777Y-15218436D02*
X13484253Y-15199388D01*
X13484253Y-15199388D02*
X13474729Y-15161293D01*
X13474729Y-15161293D02*
X13474729Y-15113674D01*
X13474729Y-15113674D02*
X13484253Y-15075579D01*
X13484253Y-15075579D02*
X13493777Y-15056531D01*
X13493777Y-15056531D02*
X13503301Y-15047008D01*
X13503301Y-15047008D02*
X13522348Y-15037484D01*
X13665206Y-15056531D02*
X13674729Y-15047008D01*
X13674729Y-15047008D02*
X13693777Y-15037484D01*
X13693777Y-15037484D02*
X13741396Y-15037484D01*
X13741396Y-15037484D02*
X13760444Y-15047008D01*
X13760444Y-15047008D02*
X13769967Y-15056531D01*
X13769967Y-15056531D02*
X13779491Y-15075579D01*
X13779491Y-15075579D02*
X13779491Y-15094627D01*
X13779491Y-15094627D02*
X13769967Y-15123198D01*
X13769967Y-15123198D02*
X13655682Y-15237484D01*
X13655682Y-15237484D02*
X13779491Y-15237484D01*
X13960444Y-15037484D02*
X13865206Y-15037484D01*
X13865206Y-15037484D02*
X13855682Y-15132722D01*
X13855682Y-15132722D02*
X13865206Y-15123198D01*
X13865206Y-15123198D02*
X13884253Y-15113674D01*
X13884253Y-15113674D02*
X13931872Y-15113674D01*
X13931872Y-15113674D02*
X13950920Y-15123198D01*
X13950920Y-15123198D02*
X13960444Y-15132722D01*
X13960444Y-15132722D02*
X13969967Y-15151769D01*
X13969967Y-15151769D02*
X13969967Y-15199388D01*
X13969967Y-15199388D02*
X13960444Y-15218436D01*
X13960444Y-15218436D02*
X13950920Y-15227960D01*
X13950920Y-15227960D02*
X13931872Y-15237484D01*
X13931872Y-15237484D02*
X13884253Y-15237484D01*
X13884253Y-15237484D02*
X13865206Y-15227960D01*
X13865206Y-15227960D02*
X13855682Y-15218436D01*
X14141396Y-15037484D02*
X14103301Y-15037484D01*
X14103301Y-15037484D02*
X14084253Y-15047008D01*
X14084253Y-15047008D02*
X14074729Y-15056531D01*
X14074729Y-15056531D02*
X14055682Y-15085103D01*
X14055682Y-15085103D02*
X14046158Y-15123198D01*
X14046158Y-15123198D02*
X14046158Y-15199388D01*
X14046158Y-15199388D02*
X14055682Y-15218436D01*
X14055682Y-15218436D02*
X14065206Y-15227960D01*
X14065206Y-15227960D02*
X14084253Y-15237484D01*
X14084253Y-15237484D02*
X14122348Y-15237484D01*
X14122348Y-15237484D02*
X14141396Y-15227960D01*
X14141396Y-15227960D02*
X14150920Y-15218436D01*
X14150920Y-15218436D02*
X14160444Y-15199388D01*
X14160444Y-15199388D02*
X14160444Y-15151769D01*
X14160444Y-15151769D02*
X14150920Y-15132722D01*
X14150920Y-15132722D02*
X14141396Y-15123198D01*
X14141396Y-15123198D02*
X14122348Y-15113674D01*
X14122348Y-15113674D02*
X14084253Y-15113674D01*
X14084253Y-15113674D02*
X14065206Y-15123198D01*
X14065206Y-15123198D02*
X14055682Y-15132722D01*
X14055682Y-15132722D02*
X14046158Y-15151769D01*
X14236634Y-15037484D02*
X14236634Y-15075579D01*
X14312825Y-15037484D02*
X14312825Y-15075579D01*
X14608063Y-15313674D02*
X14598539Y-15304150D01*
X14598539Y-15304150D02*
X14579491Y-15275579D01*
X14579491Y-15275579D02*
X14569968Y-15256531D01*
X14569968Y-15256531D02*
X14560444Y-15227960D01*
X14560444Y-15227960D02*
X14550920Y-15180341D01*
X14550920Y-15180341D02*
X14550920Y-15142246D01*
X14550920Y-15142246D02*
X14560444Y-15094627D01*
X14560444Y-15094627D02*
X14569968Y-15066055D01*
X14569968Y-15066055D02*
X14579491Y-15047008D01*
X14579491Y-15047008D02*
X14598539Y-15018436D01*
X14598539Y-15018436D02*
X14608063Y-15008912D01*
X14674729Y-15056531D02*
X14684253Y-15047008D01*
X14684253Y-15047008D02*
X14703301Y-15037484D01*
X14703301Y-15037484D02*
X14750920Y-15037484D01*
X14750920Y-15037484D02*
X14769968Y-15047008D01*
X14769968Y-15047008D02*
X14779491Y-15056531D01*
X14779491Y-15056531D02*
X14789015Y-15075579D01*
X14789015Y-15075579D02*
X14789015Y-15094627D01*
X14789015Y-15094627D02*
X14779491Y-15123198D01*
X14779491Y-15123198D02*
X14665206Y-15237484D01*
X14665206Y-15237484D02*
X14789015Y-15237484D01*
X15027110Y-15237484D02*
X15027110Y-15037484D01*
X15112825Y-15237484D02*
X15112825Y-15132722D01*
X15112825Y-15132722D02*
X15103301Y-15113674D01*
X15103301Y-15113674D02*
X15084253Y-15104150D01*
X15084253Y-15104150D02*
X15055682Y-15104150D01*
X15055682Y-15104150D02*
X15036634Y-15113674D01*
X15036634Y-15113674D02*
X15027110Y-15123198D01*
X15236634Y-15237484D02*
X15217587Y-15227960D01*
X15217587Y-15227960D02*
X15208063Y-15218436D01*
X15208063Y-15218436D02*
X15198539Y-15199388D01*
X15198539Y-15199388D02*
X15198539Y-15142246D01*
X15198539Y-15142246D02*
X15208063Y-15123198D01*
X15208063Y-15123198D02*
X15217587Y-15113674D01*
X15217587Y-15113674D02*
X15236634Y-15104150D01*
X15236634Y-15104150D02*
X15265206Y-15104150D01*
X15265206Y-15104150D02*
X15284253Y-15113674D01*
X15284253Y-15113674D02*
X15293777Y-15123198D01*
X15293777Y-15123198D02*
X15303301Y-15142246D01*
X15303301Y-15142246D02*
X15303301Y-15199388D01*
X15303301Y-15199388D02*
X15293777Y-15218436D01*
X15293777Y-15218436D02*
X15284253Y-15227960D01*
X15284253Y-15227960D02*
X15265206Y-15237484D01*
X15265206Y-15237484D02*
X15236634Y-15237484D01*
X15417587Y-15237484D02*
X15398539Y-15227960D01*
X15398539Y-15227960D02*
X15389015Y-15208912D01*
X15389015Y-15208912D02*
X15389015Y-15037484D01*
X15569968Y-15227960D02*
X15550920Y-15237484D01*
X15550920Y-15237484D02*
X15512825Y-15237484D01*
X15512825Y-15237484D02*
X15493777Y-15227960D01*
X15493777Y-15227960D02*
X15484253Y-15208912D01*
X15484253Y-15208912D02*
X15484253Y-15132722D01*
X15484253Y-15132722D02*
X15493777Y-15113674D01*
X15493777Y-15113674D02*
X15512825Y-15104150D01*
X15512825Y-15104150D02*
X15550920Y-15104150D01*
X15550920Y-15104150D02*
X15569968Y-15113674D01*
X15569968Y-15113674D02*
X15579491Y-15132722D01*
X15579491Y-15132722D02*
X15579491Y-15151769D01*
X15579491Y-15151769D02*
X15484253Y-15170817D01*
X15655682Y-15227960D02*
X15674730Y-15237484D01*
X15674730Y-15237484D02*
X15712825Y-15237484D01*
X15712825Y-15237484D02*
X15731872Y-15227960D01*
X15731872Y-15227960D02*
X15741396Y-15208912D01*
X15741396Y-15208912D02*
X15741396Y-15199388D01*
X15741396Y-15199388D02*
X15731872Y-15180341D01*
X15731872Y-15180341D02*
X15712825Y-15170817D01*
X15712825Y-15170817D02*
X15684253Y-15170817D01*
X15684253Y-15170817D02*
X15665206Y-15161293D01*
X15665206Y-15161293D02*
X15655682Y-15142246D01*
X15655682Y-15142246D02*
X15655682Y-15132722D01*
X15655682Y-15132722D02*
X15665206Y-15113674D01*
X15665206Y-15113674D02*
X15684253Y-15104150D01*
X15684253Y-15104150D02*
X15712825Y-15104150D01*
X15712825Y-15104150D02*
X15731872Y-15113674D01*
X15808063Y-15313674D02*
X15817587Y-15304150D01*
X15817587Y-15304150D02*
X15836634Y-15275579D01*
X15836634Y-15275579D02*
X15846158Y-15256531D01*
X15846158Y-15256531D02*
X15855682Y-15227960D01*
X15855682Y-15227960D02*
X15865206Y-15180341D01*
X15865206Y-15180341D02*
X15865206Y-15142246D01*
X15865206Y-15142246D02*
X15855682Y-15094627D01*
X15855682Y-15094627D02*
X15846158Y-15066055D01*
X15846158Y-15066055D02*
X15836634Y-15047008D01*
X15836634Y-15047008D02*
X15817587Y-15018436D01*
X15817587Y-15018436D02*
X15808063Y-15008912D01*
X16169968Y-15313674D02*
X16160444Y-15304150D01*
X16160444Y-15304150D02*
X16141396Y-15275579D01*
X16141396Y-15275579D02*
X16131872Y-15256531D01*
X16131872Y-15256531D02*
X16122349Y-15227960D01*
X16122349Y-15227960D02*
X16112825Y-15180341D01*
X16112825Y-15180341D02*
X16112825Y-15142246D01*
X16112825Y-15142246D02*
X16122349Y-15094627D01*
X16122349Y-15094627D02*
X16131872Y-15066055D01*
X16131872Y-15066055D02*
X16141396Y-15047008D01*
X16141396Y-15047008D02*
X16160444Y-15018436D01*
X16160444Y-15018436D02*
X16169968Y-15008912D01*
X16246158Y-15104150D02*
X16246158Y-15237484D01*
X16246158Y-15123198D02*
X16255682Y-15113674D01*
X16255682Y-15113674D02*
X16274730Y-15104150D01*
X16274730Y-15104150D02*
X16303301Y-15104150D01*
X16303301Y-15104150D02*
X16322349Y-15113674D01*
X16322349Y-15113674D02*
X16331872Y-15132722D01*
X16331872Y-15132722D02*
X16331872Y-15237484D01*
X16455682Y-15237484D02*
X16436634Y-15227960D01*
X16436634Y-15227960D02*
X16427111Y-15218436D01*
X16427111Y-15218436D02*
X16417587Y-15199388D01*
X16417587Y-15199388D02*
X16417587Y-15142246D01*
X16417587Y-15142246D02*
X16427111Y-15123198D01*
X16427111Y-15123198D02*
X16436634Y-15113674D01*
X16436634Y-15113674D02*
X16455682Y-15104150D01*
X16455682Y-15104150D02*
X16484253Y-15104150D01*
X16484253Y-15104150D02*
X16503301Y-15113674D01*
X16503301Y-15113674D02*
X16512825Y-15123198D01*
X16512825Y-15123198D02*
X16522349Y-15142246D01*
X16522349Y-15142246D02*
X16522349Y-15199388D01*
X16522349Y-15199388D02*
X16512825Y-15218436D01*
X16512825Y-15218436D02*
X16503301Y-15227960D01*
X16503301Y-15227960D02*
X16484253Y-15237484D01*
X16484253Y-15237484D02*
X16455682Y-15237484D01*
X16579492Y-15104150D02*
X16655682Y-15104150D01*
X16608063Y-15037484D02*
X16608063Y-15208912D01*
X16608063Y-15208912D02*
X16617587Y-15227960D01*
X16617587Y-15227960D02*
X16636634Y-15237484D01*
X16636634Y-15237484D02*
X16655682Y-15237484D01*
X16874730Y-15104150D02*
X16874730Y-15304150D01*
X16874730Y-15113674D02*
X16893777Y-15104150D01*
X16893777Y-15104150D02*
X16931873Y-15104150D01*
X16931873Y-15104150D02*
X16950920Y-15113674D01*
X16950920Y-15113674D02*
X16960444Y-15123198D01*
X16960444Y-15123198D02*
X16969968Y-15142246D01*
X16969968Y-15142246D02*
X16969968Y-15199388D01*
X16969968Y-15199388D02*
X16960444Y-15218436D01*
X16960444Y-15218436D02*
X16950920Y-15227960D01*
X16950920Y-15227960D02*
X16931873Y-15237484D01*
X16931873Y-15237484D02*
X16893777Y-15237484D01*
X16893777Y-15237484D02*
X16874730Y-15227960D01*
X17084254Y-15237484D02*
X17065206Y-15227960D01*
X17065206Y-15227960D02*
X17055682Y-15208912D01*
X17055682Y-15208912D02*
X17055682Y-15037484D01*
X17246158Y-15237484D02*
X17246158Y-15132722D01*
X17246158Y-15132722D02*
X17236635Y-15113674D01*
X17236635Y-15113674D02*
X17217587Y-15104150D01*
X17217587Y-15104150D02*
X17179492Y-15104150D01*
X17179492Y-15104150D02*
X17160444Y-15113674D01*
X17246158Y-15227960D02*
X17227111Y-15237484D01*
X17227111Y-15237484D02*
X17179492Y-15237484D01*
X17179492Y-15237484D02*
X17160444Y-15227960D01*
X17160444Y-15227960D02*
X17150920Y-15208912D01*
X17150920Y-15208912D02*
X17150920Y-15189865D01*
X17150920Y-15189865D02*
X17160444Y-15170817D01*
X17160444Y-15170817D02*
X17179492Y-15161293D01*
X17179492Y-15161293D02*
X17227111Y-15161293D01*
X17227111Y-15161293D02*
X17246158Y-15151769D01*
X17312825Y-15104150D02*
X17389015Y-15104150D01*
X17341396Y-15037484D02*
X17341396Y-15208912D01*
X17341396Y-15208912D02*
X17350920Y-15227960D01*
X17350920Y-15227960D02*
X17369968Y-15237484D01*
X17369968Y-15237484D02*
X17389015Y-15237484D01*
X17531873Y-15227960D02*
X17512825Y-15237484D01*
X17512825Y-15237484D02*
X17474730Y-15237484D01*
X17474730Y-15237484D02*
X17455682Y-15227960D01*
X17455682Y-15227960D02*
X17446158Y-15208912D01*
X17446158Y-15208912D02*
X17446158Y-15132722D01*
X17446158Y-15132722D02*
X17455682Y-15113674D01*
X17455682Y-15113674D02*
X17474730Y-15104150D01*
X17474730Y-15104150D02*
X17512825Y-15104150D01*
X17512825Y-15104150D02*
X17531873Y-15113674D01*
X17531873Y-15113674D02*
X17541396Y-15132722D01*
X17541396Y-15132722D02*
X17541396Y-15151769D01*
X17541396Y-15151769D02*
X17446158Y-15170817D01*
X17712825Y-15237484D02*
X17712825Y-15037484D01*
X17712825Y-15227960D02*
X17693777Y-15237484D01*
X17693777Y-15237484D02*
X17655682Y-15237484D01*
X17655682Y-15237484D02*
X17636635Y-15227960D01*
X17636635Y-15227960D02*
X17627111Y-15218436D01*
X17627111Y-15218436D02*
X17617587Y-15199388D01*
X17617587Y-15199388D02*
X17617587Y-15142246D01*
X17617587Y-15142246D02*
X17627111Y-15123198D01*
X17627111Y-15123198D02*
X17636635Y-15113674D01*
X17636635Y-15113674D02*
X17655682Y-15104150D01*
X17655682Y-15104150D02*
X17693777Y-15104150D01*
X17693777Y-15104150D02*
X17712825Y-15113674D01*
X17789016Y-15313674D02*
X17798539Y-15304150D01*
X17798539Y-15304150D02*
X17817587Y-15275579D01*
X17817587Y-15275579D02*
X17827111Y-15256531D01*
X17827111Y-15256531D02*
X17836635Y-15227960D01*
X17836635Y-15227960D02*
X17846158Y-15180341D01*
X17846158Y-15180341D02*
X17846158Y-15142246D01*
X17846158Y-15142246D02*
X17836635Y-15094627D01*
X17836635Y-15094627D02*
X17827111Y-15066055D01*
X17827111Y-15066055D02*
X17817587Y-15047008D01*
X17817587Y-15047008D02*
X17798539Y-15018436D01*
X17798539Y-15018436D02*
X17789016Y-15008912D01*
X11033000Y-15410000D02*
G75*
G02*
X10833000Y-15410000I-100000J0D01*
G01*
X10833000Y-15410000D02*
G75*
G02*
X11033000Y-15410000I100000J0D01*
G01*
X11284253Y-15320531D02*
X11293777Y-15311008D01*
X11293777Y-15311008D02*
X11312824Y-15301484D01*
X11312824Y-15301484D02*
X11360443Y-15301484D01*
X11360443Y-15301484D02*
X11379491Y-15311008D01*
X11379491Y-15311008D02*
X11389015Y-15320531D01*
X11389015Y-15320531D02*
X11398539Y-15339579D01*
X11398539Y-15339579D02*
X11398539Y-15358627D01*
X11398539Y-15358627D02*
X11389015Y-15387198D01*
X11389015Y-15387198D02*
X11274729Y-15501484D01*
X11274729Y-15501484D02*
X11398539Y-15501484D01*
X11484253Y-15482436D02*
X11493777Y-15491960D01*
X11493777Y-15491960D02*
X11484253Y-15501484D01*
X11484253Y-15501484D02*
X11474729Y-15491960D01*
X11474729Y-15491960D02*
X11484253Y-15482436D01*
X11484253Y-15482436D02*
X11484253Y-15501484D01*
X11569967Y-15320531D02*
X11579491Y-15311008D01*
X11579491Y-15311008D02*
X11598539Y-15301484D01*
X11598539Y-15301484D02*
X11646158Y-15301484D01*
X11646158Y-15301484D02*
X11665205Y-15311008D01*
X11665205Y-15311008D02*
X11674729Y-15320531D01*
X11674729Y-15320531D02*
X11684253Y-15339579D01*
X11684253Y-15339579D02*
X11684253Y-15358627D01*
X11684253Y-15358627D02*
X11674729Y-15387198D01*
X11674729Y-15387198D02*
X11560443Y-15501484D01*
X11560443Y-15501484D02*
X11684253Y-15501484D01*
X11808062Y-15301484D02*
X11827110Y-15301484D01*
X11827110Y-15301484D02*
X11846158Y-15311008D01*
X11846158Y-15311008D02*
X11855682Y-15320531D01*
X11855682Y-15320531D02*
X11865205Y-15339579D01*
X11865205Y-15339579D02*
X11874729Y-15377674D01*
X11874729Y-15377674D02*
X11874729Y-15425293D01*
X11874729Y-15425293D02*
X11865205Y-15463388D01*
X11865205Y-15463388D02*
X11855682Y-15482436D01*
X11855682Y-15482436D02*
X11846158Y-15491960D01*
X11846158Y-15491960D02*
X11827110Y-15501484D01*
X11827110Y-15501484D02*
X11808062Y-15501484D01*
X11808062Y-15501484D02*
X11789015Y-15491960D01*
X11789015Y-15491960D02*
X11779491Y-15482436D01*
X11779491Y-15482436D02*
X11769967Y-15463388D01*
X11769967Y-15463388D02*
X11760443Y-15425293D01*
X11760443Y-15425293D02*
X11760443Y-15377674D01*
X11760443Y-15377674D02*
X11769967Y-15339579D01*
X11769967Y-15339579D02*
X11779491Y-15320531D01*
X11779491Y-15320531D02*
X11789015Y-15311008D01*
X11789015Y-15311008D02*
X11808062Y-15301484D01*
X11998539Y-15301484D02*
X12017586Y-15301484D01*
X12017586Y-15301484D02*
X12036634Y-15311008D01*
X12036634Y-15311008D02*
X12046158Y-15320531D01*
X12046158Y-15320531D02*
X12055682Y-15339579D01*
X12055682Y-15339579D02*
X12065205Y-15377674D01*
X12065205Y-15377674D02*
X12065205Y-15425293D01*
X12065205Y-15425293D02*
X12055682Y-15463388D01*
X12055682Y-15463388D02*
X12046158Y-15482436D01*
X12046158Y-15482436D02*
X12036634Y-15491960D01*
X12036634Y-15491960D02*
X12017586Y-15501484D01*
X12017586Y-15501484D02*
X11998539Y-15501484D01*
X11998539Y-15501484D02*
X11979491Y-15491960D01*
X11979491Y-15491960D02*
X11969967Y-15482436D01*
X11969967Y-15482436D02*
X11960443Y-15463388D01*
X11960443Y-15463388D02*
X11950920Y-15425293D01*
X11950920Y-15425293D02*
X11950920Y-15377674D01*
X11950920Y-15377674D02*
X11960443Y-15339579D01*
X11960443Y-15339579D02*
X11969967Y-15320531D01*
X11969967Y-15320531D02*
X11979491Y-15311008D01*
X11979491Y-15311008D02*
X11998539Y-15301484D01*
X12150920Y-15501484D02*
X12150920Y-15368150D01*
X12150920Y-15387198D02*
X12160443Y-15377674D01*
X12160443Y-15377674D02*
X12179491Y-15368150D01*
X12179491Y-15368150D02*
X12208063Y-15368150D01*
X12208063Y-15368150D02*
X12227110Y-15377674D01*
X12227110Y-15377674D02*
X12236634Y-15396722D01*
X12236634Y-15396722D02*
X12236634Y-15501484D01*
X12236634Y-15396722D02*
X12246158Y-15377674D01*
X12246158Y-15377674D02*
X12265205Y-15368150D01*
X12265205Y-15368150D02*
X12293777Y-15368150D01*
X12293777Y-15368150D02*
X12312824Y-15377674D01*
X12312824Y-15377674D02*
X12322348Y-15396722D01*
X12322348Y-15396722D02*
X12322348Y-15501484D01*
X12417586Y-15501484D02*
X12417586Y-15368150D01*
X12417586Y-15387198D02*
X12427110Y-15377674D01*
X12427110Y-15377674D02*
X12446158Y-15368150D01*
X12446158Y-15368150D02*
X12474729Y-15368150D01*
X12474729Y-15368150D02*
X12493777Y-15377674D01*
X12493777Y-15377674D02*
X12503301Y-15396722D01*
X12503301Y-15396722D02*
X12503301Y-15501484D01*
X12503301Y-15396722D02*
X12512824Y-15377674D01*
X12512824Y-15377674D02*
X12531872Y-15368150D01*
X12531872Y-15368150D02*
X12560443Y-15368150D01*
X12560443Y-15368150D02*
X12579491Y-15377674D01*
X12579491Y-15377674D02*
X12589015Y-15396722D01*
X12589015Y-15396722D02*
X12589015Y-15501484D01*
X12979491Y-15291960D02*
X12808063Y-15549103D01*
X13236634Y-15301484D02*
X13255682Y-15301484D01*
X13255682Y-15301484D02*
X13274729Y-15311008D01*
X13274729Y-15311008D02*
X13284253Y-15320531D01*
X13284253Y-15320531D02*
X13293777Y-15339579D01*
X13293777Y-15339579D02*
X13303301Y-15377674D01*
X13303301Y-15377674D02*
X13303301Y-15425293D01*
X13303301Y-15425293D02*
X13293777Y-15463388D01*
X13293777Y-15463388D02*
X13284253Y-15482436D01*
X13284253Y-15482436D02*
X13274729Y-15491960D01*
X13274729Y-15491960D02*
X13255682Y-15501484D01*
X13255682Y-15501484D02*
X13236634Y-15501484D01*
X13236634Y-15501484D02*
X13217586Y-15491960D01*
X13217586Y-15491960D02*
X13208063Y-15482436D01*
X13208063Y-15482436D02*
X13198539Y-15463388D01*
X13198539Y-15463388D02*
X13189015Y-15425293D01*
X13189015Y-15425293D02*
X13189015Y-15377674D01*
X13189015Y-15377674D02*
X13198539Y-15339579D01*
X13198539Y-15339579D02*
X13208063Y-15320531D01*
X13208063Y-15320531D02*
X13217586Y-15311008D01*
X13217586Y-15311008D02*
X13236634Y-15301484D01*
X13389015Y-15482436D02*
X13398539Y-15491960D01*
X13398539Y-15491960D02*
X13389015Y-15501484D01*
X13389015Y-15501484D02*
X13379491Y-15491960D01*
X13379491Y-15491960D02*
X13389015Y-15482436D01*
X13389015Y-15482436D02*
X13389015Y-15501484D01*
X13522348Y-15301484D02*
X13541396Y-15301484D01*
X13541396Y-15301484D02*
X13560444Y-15311008D01*
X13560444Y-15311008D02*
X13569967Y-15320531D01*
X13569967Y-15320531D02*
X13579491Y-15339579D01*
X13579491Y-15339579D02*
X13589015Y-15377674D01*
X13589015Y-15377674D02*
X13589015Y-15425293D01*
X13589015Y-15425293D02*
X13579491Y-15463388D01*
X13579491Y-15463388D02*
X13569967Y-15482436D01*
X13569967Y-15482436D02*
X13560444Y-15491960D01*
X13560444Y-15491960D02*
X13541396Y-15501484D01*
X13541396Y-15501484D02*
X13522348Y-15501484D01*
X13522348Y-15501484D02*
X13503301Y-15491960D01*
X13503301Y-15491960D02*
X13493777Y-15482436D01*
X13493777Y-15482436D02*
X13484253Y-15463388D01*
X13484253Y-15463388D02*
X13474729Y-15425293D01*
X13474729Y-15425293D02*
X13474729Y-15377674D01*
X13474729Y-15377674D02*
X13484253Y-15339579D01*
X13484253Y-15339579D02*
X13493777Y-15320531D01*
X13493777Y-15320531D02*
X13503301Y-15311008D01*
X13503301Y-15311008D02*
X13522348Y-15301484D01*
X13703301Y-15387198D02*
X13684253Y-15377674D01*
X13684253Y-15377674D02*
X13674729Y-15368150D01*
X13674729Y-15368150D02*
X13665206Y-15349103D01*
X13665206Y-15349103D02*
X13665206Y-15339579D01*
X13665206Y-15339579D02*
X13674729Y-15320531D01*
X13674729Y-15320531D02*
X13684253Y-15311008D01*
X13684253Y-15311008D02*
X13703301Y-15301484D01*
X13703301Y-15301484D02*
X13741396Y-15301484D01*
X13741396Y-15301484D02*
X13760444Y-15311008D01*
X13760444Y-15311008D02*
X13769967Y-15320531D01*
X13769967Y-15320531D02*
X13779491Y-15339579D01*
X13779491Y-15339579D02*
X13779491Y-15349103D01*
X13779491Y-15349103D02*
X13769967Y-15368150D01*
X13769967Y-15368150D02*
X13760444Y-15377674D01*
X13760444Y-15377674D02*
X13741396Y-15387198D01*
X13741396Y-15387198D02*
X13703301Y-15387198D01*
X13703301Y-15387198D02*
X13684253Y-15396722D01*
X13684253Y-15396722D02*
X13674729Y-15406246D01*
X13674729Y-15406246D02*
X13665206Y-15425293D01*
X13665206Y-15425293D02*
X13665206Y-15463388D01*
X13665206Y-15463388D02*
X13674729Y-15482436D01*
X13674729Y-15482436D02*
X13684253Y-15491960D01*
X13684253Y-15491960D02*
X13703301Y-15501484D01*
X13703301Y-15501484D02*
X13741396Y-15501484D01*
X13741396Y-15501484D02*
X13760444Y-15491960D01*
X13760444Y-15491960D02*
X13769967Y-15482436D01*
X13769967Y-15482436D02*
X13779491Y-15463388D01*
X13779491Y-15463388D02*
X13779491Y-15425293D01*
X13779491Y-15425293D02*
X13769967Y-15406246D01*
X13769967Y-15406246D02*
X13760444Y-15396722D01*
X13760444Y-15396722D02*
X13741396Y-15387198D01*
X13950920Y-15301484D02*
X13912825Y-15301484D01*
X13912825Y-15301484D02*
X13893777Y-15311008D01*
X13893777Y-15311008D02*
X13884253Y-15320531D01*
X13884253Y-15320531D02*
X13865206Y-15349103D01*
X13865206Y-15349103D02*
X13855682Y-15387198D01*
X13855682Y-15387198D02*
X13855682Y-15463388D01*
X13855682Y-15463388D02*
X13865206Y-15482436D01*
X13865206Y-15482436D02*
X13874729Y-15491960D01*
X13874729Y-15491960D02*
X13893777Y-15501484D01*
X13893777Y-15501484D02*
X13931872Y-15501484D01*
X13931872Y-15501484D02*
X13950920Y-15491960D01*
X13950920Y-15491960D02*
X13960444Y-15482436D01*
X13960444Y-15482436D02*
X13969967Y-15463388D01*
X13969967Y-15463388D02*
X13969967Y-15415769D01*
X13969967Y-15415769D02*
X13960444Y-15396722D01*
X13960444Y-15396722D02*
X13950920Y-15387198D01*
X13950920Y-15387198D02*
X13931872Y-15377674D01*
X13931872Y-15377674D02*
X13893777Y-15377674D01*
X13893777Y-15377674D02*
X13874729Y-15387198D01*
X13874729Y-15387198D02*
X13865206Y-15396722D01*
X13865206Y-15396722D02*
X13855682Y-15415769D01*
X14141396Y-15301484D02*
X14103301Y-15301484D01*
X14103301Y-15301484D02*
X14084253Y-15311008D01*
X14084253Y-15311008D02*
X14074729Y-15320531D01*
X14074729Y-15320531D02*
X14055682Y-15349103D01*
X14055682Y-15349103D02*
X14046158Y-15387198D01*
X14046158Y-15387198D02*
X14046158Y-15463388D01*
X14046158Y-15463388D02*
X14055682Y-15482436D01*
X14055682Y-15482436D02*
X14065206Y-15491960D01*
X14065206Y-15491960D02*
X14084253Y-15501484D01*
X14084253Y-15501484D02*
X14122348Y-15501484D01*
X14122348Y-15501484D02*
X14141396Y-15491960D01*
X14141396Y-15491960D02*
X14150920Y-15482436D01*
X14150920Y-15482436D02*
X14160444Y-15463388D01*
X14160444Y-15463388D02*
X14160444Y-15415769D01*
X14160444Y-15415769D02*
X14150920Y-15396722D01*
X14150920Y-15396722D02*
X14141396Y-15387198D01*
X14141396Y-15387198D02*
X14122348Y-15377674D01*
X14122348Y-15377674D02*
X14084253Y-15377674D01*
X14084253Y-15377674D02*
X14065206Y-15387198D01*
X14065206Y-15387198D02*
X14055682Y-15396722D01*
X14055682Y-15396722D02*
X14046158Y-15415769D01*
X14236634Y-15301484D02*
X14236634Y-15339579D01*
X14312825Y-15301484D02*
X14312825Y-15339579D01*
X14608063Y-15577674D02*
X14598539Y-15568150D01*
X14598539Y-15568150D02*
X14579491Y-15539579D01*
X14579491Y-15539579D02*
X14569968Y-15520531D01*
X14569968Y-15520531D02*
X14560444Y-15491960D01*
X14560444Y-15491960D02*
X14550920Y-15444341D01*
X14550920Y-15444341D02*
X14550920Y-15406246D01*
X14550920Y-15406246D02*
X14560444Y-15358627D01*
X14560444Y-15358627D02*
X14569968Y-15330055D01*
X14569968Y-15330055D02*
X14579491Y-15311008D01*
X14579491Y-15311008D02*
X14598539Y-15282436D01*
X14598539Y-15282436D02*
X14608063Y-15272912D01*
X14674729Y-15320531D02*
X14684253Y-15311008D01*
X14684253Y-15311008D02*
X14703301Y-15301484D01*
X14703301Y-15301484D02*
X14750920Y-15301484D01*
X14750920Y-15301484D02*
X14769968Y-15311008D01*
X14769968Y-15311008D02*
X14779491Y-15320531D01*
X14779491Y-15320531D02*
X14789015Y-15339579D01*
X14789015Y-15339579D02*
X14789015Y-15358627D01*
X14789015Y-15358627D02*
X14779491Y-15387198D01*
X14779491Y-15387198D02*
X14665206Y-15501484D01*
X14665206Y-15501484D02*
X14789015Y-15501484D01*
X15027110Y-15501484D02*
X15027110Y-15301484D01*
X15112825Y-15501484D02*
X15112825Y-15396722D01*
X15112825Y-15396722D02*
X15103301Y-15377674D01*
X15103301Y-15377674D02*
X15084253Y-15368150D01*
X15084253Y-15368150D02*
X15055682Y-15368150D01*
X15055682Y-15368150D02*
X15036634Y-15377674D01*
X15036634Y-15377674D02*
X15027110Y-15387198D01*
X15236634Y-15501484D02*
X15217587Y-15491960D01*
X15217587Y-15491960D02*
X15208063Y-15482436D01*
X15208063Y-15482436D02*
X15198539Y-15463388D01*
X15198539Y-15463388D02*
X15198539Y-15406246D01*
X15198539Y-15406246D02*
X15208063Y-15387198D01*
X15208063Y-15387198D02*
X15217587Y-15377674D01*
X15217587Y-15377674D02*
X15236634Y-15368150D01*
X15236634Y-15368150D02*
X15265206Y-15368150D01*
X15265206Y-15368150D02*
X15284253Y-15377674D01*
X15284253Y-15377674D02*
X15293777Y-15387198D01*
X15293777Y-15387198D02*
X15303301Y-15406246D01*
X15303301Y-15406246D02*
X15303301Y-15463388D01*
X15303301Y-15463388D02*
X15293777Y-15482436D01*
X15293777Y-15482436D02*
X15284253Y-15491960D01*
X15284253Y-15491960D02*
X15265206Y-15501484D01*
X15265206Y-15501484D02*
X15236634Y-15501484D01*
X15417587Y-15501484D02*
X15398539Y-15491960D01*
X15398539Y-15491960D02*
X15389015Y-15472912D01*
X15389015Y-15472912D02*
X15389015Y-15301484D01*
X15569968Y-15491960D02*
X15550920Y-15501484D01*
X15550920Y-15501484D02*
X15512825Y-15501484D01*
X15512825Y-15501484D02*
X15493777Y-15491960D01*
X15493777Y-15491960D02*
X15484253Y-15472912D01*
X15484253Y-15472912D02*
X15484253Y-15396722D01*
X15484253Y-15396722D02*
X15493777Y-15377674D01*
X15493777Y-15377674D02*
X15512825Y-15368150D01*
X15512825Y-15368150D02*
X15550920Y-15368150D01*
X15550920Y-15368150D02*
X15569968Y-15377674D01*
X15569968Y-15377674D02*
X15579491Y-15396722D01*
X15579491Y-15396722D02*
X15579491Y-15415769D01*
X15579491Y-15415769D02*
X15484253Y-15434817D01*
X15655682Y-15491960D02*
X15674730Y-15501484D01*
X15674730Y-15501484D02*
X15712825Y-15501484D01*
X15712825Y-15501484D02*
X15731872Y-15491960D01*
X15731872Y-15491960D02*
X15741396Y-15472912D01*
X15741396Y-15472912D02*
X15741396Y-15463388D01*
X15741396Y-15463388D02*
X15731872Y-15444341D01*
X15731872Y-15444341D02*
X15712825Y-15434817D01*
X15712825Y-15434817D02*
X15684253Y-15434817D01*
X15684253Y-15434817D02*
X15665206Y-15425293D01*
X15665206Y-15425293D02*
X15655682Y-15406246D01*
X15655682Y-15406246D02*
X15655682Y-15396722D01*
X15655682Y-15396722D02*
X15665206Y-15377674D01*
X15665206Y-15377674D02*
X15684253Y-15368150D01*
X15684253Y-15368150D02*
X15712825Y-15368150D01*
X15712825Y-15368150D02*
X15731872Y-15377674D01*
X15808063Y-15577674D02*
X15817587Y-15568150D01*
X15817587Y-15568150D02*
X15836634Y-15539579D01*
X15836634Y-15539579D02*
X15846158Y-15520531D01*
X15846158Y-15520531D02*
X15855682Y-15491960D01*
X15855682Y-15491960D02*
X15865206Y-15444341D01*
X15865206Y-15444341D02*
X15865206Y-15406246D01*
X15865206Y-15406246D02*
X15855682Y-15358627D01*
X15855682Y-15358627D02*
X15846158Y-15330055D01*
X15846158Y-15330055D02*
X15836634Y-15311008D01*
X15836634Y-15311008D02*
X15817587Y-15282436D01*
X15817587Y-15282436D02*
X15808063Y-15272912D01*
X16169968Y-15577674D02*
X16160444Y-15568150D01*
X16160444Y-15568150D02*
X16141396Y-15539579D01*
X16141396Y-15539579D02*
X16131872Y-15520531D01*
X16131872Y-15520531D02*
X16122349Y-15491960D01*
X16122349Y-15491960D02*
X16112825Y-15444341D01*
X16112825Y-15444341D02*
X16112825Y-15406246D01*
X16112825Y-15406246D02*
X16122349Y-15358627D01*
X16122349Y-15358627D02*
X16131872Y-15330055D01*
X16131872Y-15330055D02*
X16141396Y-15311008D01*
X16141396Y-15311008D02*
X16160444Y-15282436D01*
X16160444Y-15282436D02*
X16169968Y-15272912D01*
X16246158Y-15368150D02*
X16246158Y-15501484D01*
X16246158Y-15387198D02*
X16255682Y-15377674D01*
X16255682Y-15377674D02*
X16274730Y-15368150D01*
X16274730Y-15368150D02*
X16303301Y-15368150D01*
X16303301Y-15368150D02*
X16322349Y-15377674D01*
X16322349Y-15377674D02*
X16331872Y-15396722D01*
X16331872Y-15396722D02*
X16331872Y-15501484D01*
X16455682Y-15501484D02*
X16436634Y-15491960D01*
X16436634Y-15491960D02*
X16427111Y-15482436D01*
X16427111Y-15482436D02*
X16417587Y-15463388D01*
X16417587Y-15463388D02*
X16417587Y-15406246D01*
X16417587Y-15406246D02*
X16427111Y-15387198D01*
X16427111Y-15387198D02*
X16436634Y-15377674D01*
X16436634Y-15377674D02*
X16455682Y-15368150D01*
X16455682Y-15368150D02*
X16484253Y-15368150D01*
X16484253Y-15368150D02*
X16503301Y-15377674D01*
X16503301Y-15377674D02*
X16512825Y-15387198D01*
X16512825Y-15387198D02*
X16522349Y-15406246D01*
X16522349Y-15406246D02*
X16522349Y-15463388D01*
X16522349Y-15463388D02*
X16512825Y-15482436D01*
X16512825Y-15482436D02*
X16503301Y-15491960D01*
X16503301Y-15491960D02*
X16484253Y-15501484D01*
X16484253Y-15501484D02*
X16455682Y-15501484D01*
X16579492Y-15368150D02*
X16655682Y-15368150D01*
X16608063Y-15301484D02*
X16608063Y-15472912D01*
X16608063Y-15472912D02*
X16617587Y-15491960D01*
X16617587Y-15491960D02*
X16636634Y-15501484D01*
X16636634Y-15501484D02*
X16655682Y-15501484D01*
X16874730Y-15368150D02*
X16874730Y-15568150D01*
X16874730Y-15377674D02*
X16893777Y-15368150D01*
X16893777Y-15368150D02*
X16931873Y-15368150D01*
X16931873Y-15368150D02*
X16950920Y-15377674D01*
X16950920Y-15377674D02*
X16960444Y-15387198D01*
X16960444Y-15387198D02*
X16969968Y-15406246D01*
X16969968Y-15406246D02*
X16969968Y-15463388D01*
X16969968Y-15463388D02*
X16960444Y-15482436D01*
X16960444Y-15482436D02*
X16950920Y-15491960D01*
X16950920Y-15491960D02*
X16931873Y-15501484D01*
X16931873Y-15501484D02*
X16893777Y-15501484D01*
X16893777Y-15501484D02*
X16874730Y-15491960D01*
X17084254Y-15501484D02*
X17065206Y-15491960D01*
X17065206Y-15491960D02*
X17055682Y-15472912D01*
X17055682Y-15472912D02*
X17055682Y-15301484D01*
X17246158Y-15501484D02*
X17246158Y-15396722D01*
X17246158Y-15396722D02*
X17236635Y-15377674D01*
X17236635Y-15377674D02*
X17217587Y-15368150D01*
X17217587Y-15368150D02*
X17179492Y-15368150D01*
X17179492Y-15368150D02*
X17160444Y-15377674D01*
X17246158Y-15491960D02*
X17227111Y-15501484D01*
X17227111Y-15501484D02*
X17179492Y-15501484D01*
X17179492Y-15501484D02*
X17160444Y-15491960D01*
X17160444Y-15491960D02*
X17150920Y-15472912D01*
X17150920Y-15472912D02*
X17150920Y-15453865D01*
X17150920Y-15453865D02*
X17160444Y-15434817D01*
X17160444Y-15434817D02*
X17179492Y-15425293D01*
X17179492Y-15425293D02*
X17227111Y-15425293D01*
X17227111Y-15425293D02*
X17246158Y-15415769D01*
X17312825Y-15368150D02*
X17389015Y-15368150D01*
X17341396Y-15301484D02*
X17341396Y-15472912D01*
X17341396Y-15472912D02*
X17350920Y-15491960D01*
X17350920Y-15491960D02*
X17369968Y-15501484D01*
X17369968Y-15501484D02*
X17389015Y-15501484D01*
X17531873Y-15491960D02*
X17512825Y-15501484D01*
X17512825Y-15501484D02*
X17474730Y-15501484D01*
X17474730Y-15501484D02*
X17455682Y-15491960D01*
X17455682Y-15491960D02*
X17446158Y-15472912D01*
X17446158Y-15472912D02*
X17446158Y-15396722D01*
X17446158Y-15396722D02*
X17455682Y-15377674D01*
X17455682Y-15377674D02*
X17474730Y-15368150D01*
X17474730Y-15368150D02*
X17512825Y-15368150D01*
X17512825Y-15368150D02*
X17531873Y-15377674D01*
X17531873Y-15377674D02*
X17541396Y-15396722D01*
X17541396Y-15396722D02*
X17541396Y-15415769D01*
X17541396Y-15415769D02*
X17446158Y-15434817D01*
X17712825Y-15501484D02*
X17712825Y-15301484D01*
X17712825Y-15491960D02*
X17693777Y-15501484D01*
X17693777Y-15501484D02*
X17655682Y-15501484D01*
X17655682Y-15501484D02*
X17636635Y-15491960D01*
X17636635Y-15491960D02*
X17627111Y-15482436D01*
X17627111Y-15482436D02*
X17617587Y-15463388D01*
X17617587Y-15463388D02*
X17617587Y-15406246D01*
X17617587Y-15406246D02*
X17627111Y-15387198D01*
X17627111Y-15387198D02*
X17636635Y-15377674D01*
X17636635Y-15377674D02*
X17655682Y-15368150D01*
X17655682Y-15368150D02*
X17693777Y-15368150D01*
X17693777Y-15368150D02*
X17712825Y-15377674D01*
X17789016Y-15577674D02*
X17798539Y-15568150D01*
X17798539Y-15568150D02*
X17817587Y-15539579D01*
X17817587Y-15539579D02*
X17827111Y-15520531D01*
X17827111Y-15520531D02*
X17836635Y-15491960D01*
X17836635Y-15491960D02*
X17846158Y-15444341D01*
X17846158Y-15444341D02*
X17846158Y-15406246D01*
X17846158Y-15406246D02*
X17836635Y-15358627D01*
X17836635Y-15358627D02*
X17827111Y-15330055D01*
X17827111Y-15330055D02*
X17817587Y-15311008D01*
X17817587Y-15311008D02*
X17798539Y-15282436D01*
X17798539Y-15282436D02*
X17789016Y-15272912D01*
X10933000Y-15630000D02*
X10933000Y-15830000D01*
X10833000Y-15730000D02*
X11033000Y-15730000D01*
X11274729Y-15621484D02*
X11398539Y-15621484D01*
X11398539Y-15621484D02*
X11331872Y-15697674D01*
X11331872Y-15697674D02*
X11360443Y-15697674D01*
X11360443Y-15697674D02*
X11379491Y-15707198D01*
X11379491Y-15707198D02*
X11389015Y-15716722D01*
X11389015Y-15716722D02*
X11398539Y-15735769D01*
X11398539Y-15735769D02*
X11398539Y-15783388D01*
X11398539Y-15783388D02*
X11389015Y-15802436D01*
X11389015Y-15802436D02*
X11379491Y-15811960D01*
X11379491Y-15811960D02*
X11360443Y-15821484D01*
X11360443Y-15821484D02*
X11303301Y-15821484D01*
X11303301Y-15821484D02*
X11284253Y-15811960D01*
X11284253Y-15811960D02*
X11274729Y-15802436D01*
X11484253Y-15802436D02*
X11493777Y-15811960D01*
X11493777Y-15811960D02*
X11484253Y-15821484D01*
X11484253Y-15821484D02*
X11474729Y-15811960D01*
X11474729Y-15811960D02*
X11484253Y-15802436D01*
X11484253Y-15802436D02*
X11484253Y-15821484D01*
X11569967Y-15640531D02*
X11579491Y-15631008D01*
X11579491Y-15631008D02*
X11598539Y-15621484D01*
X11598539Y-15621484D02*
X11646158Y-15621484D01*
X11646158Y-15621484D02*
X11665205Y-15631008D01*
X11665205Y-15631008D02*
X11674729Y-15640531D01*
X11674729Y-15640531D02*
X11684253Y-15659579D01*
X11684253Y-15659579D02*
X11684253Y-15678627D01*
X11684253Y-15678627D02*
X11674729Y-15707198D01*
X11674729Y-15707198D02*
X11560443Y-15821484D01*
X11560443Y-15821484D02*
X11684253Y-15821484D01*
X11808062Y-15621484D02*
X11827110Y-15621484D01*
X11827110Y-15621484D02*
X11846158Y-15631008D01*
X11846158Y-15631008D02*
X11855682Y-15640531D01*
X11855682Y-15640531D02*
X11865205Y-15659579D01*
X11865205Y-15659579D02*
X11874729Y-15697674D01*
X11874729Y-15697674D02*
X11874729Y-15745293D01*
X11874729Y-15745293D02*
X11865205Y-15783388D01*
X11865205Y-15783388D02*
X11855682Y-15802436D01*
X11855682Y-15802436D02*
X11846158Y-15811960D01*
X11846158Y-15811960D02*
X11827110Y-15821484D01*
X11827110Y-15821484D02*
X11808062Y-15821484D01*
X11808062Y-15821484D02*
X11789015Y-15811960D01*
X11789015Y-15811960D02*
X11779491Y-15802436D01*
X11779491Y-15802436D02*
X11769967Y-15783388D01*
X11769967Y-15783388D02*
X11760443Y-15745293D01*
X11760443Y-15745293D02*
X11760443Y-15697674D01*
X11760443Y-15697674D02*
X11769967Y-15659579D01*
X11769967Y-15659579D02*
X11779491Y-15640531D01*
X11779491Y-15640531D02*
X11789015Y-15631008D01*
X11789015Y-15631008D02*
X11808062Y-15621484D01*
X11998539Y-15621484D02*
X12017586Y-15621484D01*
X12017586Y-15621484D02*
X12036634Y-15631008D01*
X12036634Y-15631008D02*
X12046158Y-15640531D01*
X12046158Y-15640531D02*
X12055682Y-15659579D01*
X12055682Y-15659579D02*
X12065205Y-15697674D01*
X12065205Y-15697674D02*
X12065205Y-15745293D01*
X12065205Y-15745293D02*
X12055682Y-15783388D01*
X12055682Y-15783388D02*
X12046158Y-15802436D01*
X12046158Y-15802436D02*
X12036634Y-15811960D01*
X12036634Y-15811960D02*
X12017586Y-15821484D01*
X12017586Y-15821484D02*
X11998539Y-15821484D01*
X11998539Y-15821484D02*
X11979491Y-15811960D01*
X11979491Y-15811960D02*
X11969967Y-15802436D01*
X11969967Y-15802436D02*
X11960443Y-15783388D01*
X11960443Y-15783388D02*
X11950920Y-15745293D01*
X11950920Y-15745293D02*
X11950920Y-15697674D01*
X11950920Y-15697674D02*
X11960443Y-15659579D01*
X11960443Y-15659579D02*
X11969967Y-15640531D01*
X11969967Y-15640531D02*
X11979491Y-15631008D01*
X11979491Y-15631008D02*
X11998539Y-15621484D01*
X12150920Y-15821484D02*
X12150920Y-15688150D01*
X12150920Y-15707198D02*
X12160443Y-15697674D01*
X12160443Y-15697674D02*
X12179491Y-15688150D01*
X12179491Y-15688150D02*
X12208063Y-15688150D01*
X12208063Y-15688150D02*
X12227110Y-15697674D01*
X12227110Y-15697674D02*
X12236634Y-15716722D01*
X12236634Y-15716722D02*
X12236634Y-15821484D01*
X12236634Y-15716722D02*
X12246158Y-15697674D01*
X12246158Y-15697674D02*
X12265205Y-15688150D01*
X12265205Y-15688150D02*
X12293777Y-15688150D01*
X12293777Y-15688150D02*
X12312824Y-15697674D01*
X12312824Y-15697674D02*
X12322348Y-15716722D01*
X12322348Y-15716722D02*
X12322348Y-15821484D01*
X12417586Y-15821484D02*
X12417586Y-15688150D01*
X12417586Y-15707198D02*
X12427110Y-15697674D01*
X12427110Y-15697674D02*
X12446158Y-15688150D01*
X12446158Y-15688150D02*
X12474729Y-15688150D01*
X12474729Y-15688150D02*
X12493777Y-15697674D01*
X12493777Y-15697674D02*
X12503301Y-15716722D01*
X12503301Y-15716722D02*
X12503301Y-15821484D01*
X12503301Y-15716722D02*
X12512824Y-15697674D01*
X12512824Y-15697674D02*
X12531872Y-15688150D01*
X12531872Y-15688150D02*
X12560443Y-15688150D01*
X12560443Y-15688150D02*
X12579491Y-15697674D01*
X12579491Y-15697674D02*
X12589015Y-15716722D01*
X12589015Y-15716722D02*
X12589015Y-15821484D01*
X12979491Y-15611960D02*
X12808063Y-15869103D01*
X13236634Y-15621484D02*
X13255682Y-15621484D01*
X13255682Y-15621484D02*
X13274729Y-15631008D01*
X13274729Y-15631008D02*
X13284253Y-15640531D01*
X13284253Y-15640531D02*
X13293777Y-15659579D01*
X13293777Y-15659579D02*
X13303301Y-15697674D01*
X13303301Y-15697674D02*
X13303301Y-15745293D01*
X13303301Y-15745293D02*
X13293777Y-15783388D01*
X13293777Y-15783388D02*
X13284253Y-15802436D01*
X13284253Y-15802436D02*
X13274729Y-15811960D01*
X13274729Y-15811960D02*
X13255682Y-15821484D01*
X13255682Y-15821484D02*
X13236634Y-15821484D01*
X13236634Y-15821484D02*
X13217586Y-15811960D01*
X13217586Y-15811960D02*
X13208063Y-15802436D01*
X13208063Y-15802436D02*
X13198539Y-15783388D01*
X13198539Y-15783388D02*
X13189015Y-15745293D01*
X13189015Y-15745293D02*
X13189015Y-15697674D01*
X13189015Y-15697674D02*
X13198539Y-15659579D01*
X13198539Y-15659579D02*
X13208063Y-15640531D01*
X13208063Y-15640531D02*
X13217586Y-15631008D01*
X13217586Y-15631008D02*
X13236634Y-15621484D01*
X13389015Y-15802436D02*
X13398539Y-15811960D01*
X13398539Y-15811960D02*
X13389015Y-15821484D01*
X13389015Y-15821484D02*
X13379491Y-15811960D01*
X13379491Y-15811960D02*
X13389015Y-15802436D01*
X13389015Y-15802436D02*
X13389015Y-15821484D01*
X13589015Y-15821484D02*
X13474729Y-15821484D01*
X13531872Y-15821484D02*
X13531872Y-15621484D01*
X13531872Y-15621484D02*
X13512825Y-15650055D01*
X13512825Y-15650055D02*
X13493777Y-15669103D01*
X13493777Y-15669103D02*
X13474729Y-15678627D01*
X13665206Y-15640531D02*
X13674729Y-15631008D01*
X13674729Y-15631008D02*
X13693777Y-15621484D01*
X13693777Y-15621484D02*
X13741396Y-15621484D01*
X13741396Y-15621484D02*
X13760444Y-15631008D01*
X13760444Y-15631008D02*
X13769967Y-15640531D01*
X13769967Y-15640531D02*
X13779491Y-15659579D01*
X13779491Y-15659579D02*
X13779491Y-15678627D01*
X13779491Y-15678627D02*
X13769967Y-15707198D01*
X13769967Y-15707198D02*
X13655682Y-15821484D01*
X13655682Y-15821484D02*
X13779491Y-15821484D01*
X13950920Y-15621484D02*
X13912825Y-15621484D01*
X13912825Y-15621484D02*
X13893777Y-15631008D01*
X13893777Y-15631008D02*
X13884253Y-15640531D01*
X13884253Y-15640531D02*
X13865206Y-15669103D01*
X13865206Y-15669103D02*
X13855682Y-15707198D01*
X13855682Y-15707198D02*
X13855682Y-15783388D01*
X13855682Y-15783388D02*
X13865206Y-15802436D01*
X13865206Y-15802436D02*
X13874729Y-15811960D01*
X13874729Y-15811960D02*
X13893777Y-15821484D01*
X13893777Y-15821484D02*
X13931872Y-15821484D01*
X13931872Y-15821484D02*
X13950920Y-15811960D01*
X13950920Y-15811960D02*
X13960444Y-15802436D01*
X13960444Y-15802436D02*
X13969967Y-15783388D01*
X13969967Y-15783388D02*
X13969967Y-15735769D01*
X13969967Y-15735769D02*
X13960444Y-15716722D01*
X13960444Y-15716722D02*
X13950920Y-15707198D01*
X13950920Y-15707198D02*
X13931872Y-15697674D01*
X13931872Y-15697674D02*
X13893777Y-15697674D01*
X13893777Y-15697674D02*
X13874729Y-15707198D01*
X13874729Y-15707198D02*
X13865206Y-15716722D01*
X13865206Y-15716722D02*
X13855682Y-15735769D01*
X14093777Y-15621484D02*
X14112825Y-15621484D01*
X14112825Y-15621484D02*
X14131872Y-15631008D01*
X14131872Y-15631008D02*
X14141396Y-15640531D01*
X14141396Y-15640531D02*
X14150920Y-15659579D01*
X14150920Y-15659579D02*
X14160444Y-15697674D01*
X14160444Y-15697674D02*
X14160444Y-15745293D01*
X14160444Y-15745293D02*
X14150920Y-15783388D01*
X14150920Y-15783388D02*
X14141396Y-15802436D01*
X14141396Y-15802436D02*
X14131872Y-15811960D01*
X14131872Y-15811960D02*
X14112825Y-15821484D01*
X14112825Y-15821484D02*
X14093777Y-15821484D01*
X14093777Y-15821484D02*
X14074729Y-15811960D01*
X14074729Y-15811960D02*
X14065206Y-15802436D01*
X14065206Y-15802436D02*
X14055682Y-15783388D01*
X14055682Y-15783388D02*
X14046158Y-15745293D01*
X14046158Y-15745293D02*
X14046158Y-15697674D01*
X14046158Y-15697674D02*
X14055682Y-15659579D01*
X14055682Y-15659579D02*
X14065206Y-15640531D01*
X14065206Y-15640531D02*
X14074729Y-15631008D01*
X14074729Y-15631008D02*
X14093777Y-15621484D01*
X14236634Y-15621484D02*
X14236634Y-15659579D01*
X14312825Y-15621484D02*
X14312825Y-15659579D01*
X14608063Y-15897674D02*
X14598539Y-15888150D01*
X14598539Y-15888150D02*
X14579491Y-15859579D01*
X14579491Y-15859579D02*
X14569968Y-15840531D01*
X14569968Y-15840531D02*
X14560444Y-15811960D01*
X14560444Y-15811960D02*
X14550920Y-15764341D01*
X14550920Y-15764341D02*
X14550920Y-15726246D01*
X14550920Y-15726246D02*
X14560444Y-15678627D01*
X14560444Y-15678627D02*
X14569968Y-15650055D01*
X14569968Y-15650055D02*
X14579491Y-15631008D01*
X14579491Y-15631008D02*
X14598539Y-15602436D01*
X14598539Y-15602436D02*
X14608063Y-15592912D01*
X14769968Y-15688150D02*
X14769968Y-15821484D01*
X14722348Y-15611960D02*
X14674729Y-15754817D01*
X14674729Y-15754817D02*
X14798539Y-15754817D01*
X15027110Y-15821484D02*
X15027110Y-15621484D01*
X15112825Y-15821484D02*
X15112825Y-15716722D01*
X15112825Y-15716722D02*
X15103301Y-15697674D01*
X15103301Y-15697674D02*
X15084253Y-15688150D01*
X15084253Y-15688150D02*
X15055682Y-15688150D01*
X15055682Y-15688150D02*
X15036634Y-15697674D01*
X15036634Y-15697674D02*
X15027110Y-15707198D01*
X15236634Y-15821484D02*
X15217587Y-15811960D01*
X15217587Y-15811960D02*
X15208063Y-15802436D01*
X15208063Y-15802436D02*
X15198539Y-15783388D01*
X15198539Y-15783388D02*
X15198539Y-15726246D01*
X15198539Y-15726246D02*
X15208063Y-15707198D01*
X15208063Y-15707198D02*
X15217587Y-15697674D01*
X15217587Y-15697674D02*
X15236634Y-15688150D01*
X15236634Y-15688150D02*
X15265206Y-15688150D01*
X15265206Y-15688150D02*
X15284253Y-15697674D01*
X15284253Y-15697674D02*
X15293777Y-15707198D01*
X15293777Y-15707198D02*
X15303301Y-15726246D01*
X15303301Y-15726246D02*
X15303301Y-15783388D01*
X15303301Y-15783388D02*
X15293777Y-15802436D01*
X15293777Y-15802436D02*
X15284253Y-15811960D01*
X15284253Y-15811960D02*
X15265206Y-15821484D01*
X15265206Y-15821484D02*
X15236634Y-15821484D01*
X15417587Y-15821484D02*
X15398539Y-15811960D01*
X15398539Y-15811960D02*
X15389015Y-15792912D01*
X15389015Y-15792912D02*
X15389015Y-15621484D01*
X15569968Y-15811960D02*
X15550920Y-15821484D01*
X15550920Y-15821484D02*
X15512825Y-15821484D01*
X15512825Y-15821484D02*
X15493777Y-15811960D01*
X15493777Y-15811960D02*
X15484253Y-15792912D01*
X15484253Y-15792912D02*
X15484253Y-15716722D01*
X15484253Y-15716722D02*
X15493777Y-15697674D01*
X15493777Y-15697674D02*
X15512825Y-15688150D01*
X15512825Y-15688150D02*
X15550920Y-15688150D01*
X15550920Y-15688150D02*
X15569968Y-15697674D01*
X15569968Y-15697674D02*
X15579491Y-15716722D01*
X15579491Y-15716722D02*
X15579491Y-15735769D01*
X15579491Y-15735769D02*
X15484253Y-15754817D01*
X15655682Y-15811960D02*
X15674730Y-15821484D01*
X15674730Y-15821484D02*
X15712825Y-15821484D01*
X15712825Y-15821484D02*
X15731872Y-15811960D01*
X15731872Y-15811960D02*
X15741396Y-15792912D01*
X15741396Y-15792912D02*
X15741396Y-15783388D01*
X15741396Y-15783388D02*
X15731872Y-15764341D01*
X15731872Y-15764341D02*
X15712825Y-15754817D01*
X15712825Y-15754817D02*
X15684253Y-15754817D01*
X15684253Y-15754817D02*
X15665206Y-15745293D01*
X15665206Y-15745293D02*
X15655682Y-15726246D01*
X15655682Y-15726246D02*
X15655682Y-15716722D01*
X15655682Y-15716722D02*
X15665206Y-15697674D01*
X15665206Y-15697674D02*
X15684253Y-15688150D01*
X15684253Y-15688150D02*
X15712825Y-15688150D01*
X15712825Y-15688150D02*
X15731872Y-15697674D01*
X15808063Y-15897674D02*
X15817587Y-15888150D01*
X15817587Y-15888150D02*
X15836634Y-15859579D01*
X15836634Y-15859579D02*
X15846158Y-15840531D01*
X15846158Y-15840531D02*
X15855682Y-15811960D01*
X15855682Y-15811960D02*
X15865206Y-15764341D01*
X15865206Y-15764341D02*
X15865206Y-15726246D01*
X15865206Y-15726246D02*
X15855682Y-15678627D01*
X15855682Y-15678627D02*
X15846158Y-15650055D01*
X15846158Y-15650055D02*
X15836634Y-15631008D01*
X15836634Y-15631008D02*
X15817587Y-15602436D01*
X15817587Y-15602436D02*
X15808063Y-15592912D01*
X16169968Y-15897674D02*
X16160444Y-15888150D01*
X16160444Y-15888150D02*
X16141396Y-15859579D01*
X16141396Y-15859579D02*
X16131872Y-15840531D01*
X16131872Y-15840531D02*
X16122349Y-15811960D01*
X16122349Y-15811960D02*
X16112825Y-15764341D01*
X16112825Y-15764341D02*
X16112825Y-15726246D01*
X16112825Y-15726246D02*
X16122349Y-15678627D01*
X16122349Y-15678627D02*
X16131872Y-15650055D01*
X16131872Y-15650055D02*
X16141396Y-15631008D01*
X16141396Y-15631008D02*
X16160444Y-15602436D01*
X16160444Y-15602436D02*
X16169968Y-15592912D01*
X16246158Y-15688150D02*
X16246158Y-15821484D01*
X16246158Y-15707198D02*
X16255682Y-15697674D01*
X16255682Y-15697674D02*
X16274730Y-15688150D01*
X16274730Y-15688150D02*
X16303301Y-15688150D01*
X16303301Y-15688150D02*
X16322349Y-15697674D01*
X16322349Y-15697674D02*
X16331872Y-15716722D01*
X16331872Y-15716722D02*
X16331872Y-15821484D01*
X16455682Y-15821484D02*
X16436634Y-15811960D01*
X16436634Y-15811960D02*
X16427111Y-15802436D01*
X16427111Y-15802436D02*
X16417587Y-15783388D01*
X16417587Y-15783388D02*
X16417587Y-15726246D01*
X16417587Y-15726246D02*
X16427111Y-15707198D01*
X16427111Y-15707198D02*
X16436634Y-15697674D01*
X16436634Y-15697674D02*
X16455682Y-15688150D01*
X16455682Y-15688150D02*
X16484253Y-15688150D01*
X16484253Y-15688150D02*
X16503301Y-15697674D01*
X16503301Y-15697674D02*
X16512825Y-15707198D01*
X16512825Y-15707198D02*
X16522349Y-15726246D01*
X16522349Y-15726246D02*
X16522349Y-15783388D01*
X16522349Y-15783388D02*
X16512825Y-15802436D01*
X16512825Y-15802436D02*
X16503301Y-15811960D01*
X16503301Y-15811960D02*
X16484253Y-15821484D01*
X16484253Y-15821484D02*
X16455682Y-15821484D01*
X16579492Y-15688150D02*
X16655682Y-15688150D01*
X16608063Y-15621484D02*
X16608063Y-15792912D01*
X16608063Y-15792912D02*
X16617587Y-15811960D01*
X16617587Y-15811960D02*
X16636634Y-15821484D01*
X16636634Y-15821484D02*
X16655682Y-15821484D01*
X16874730Y-15688150D02*
X16874730Y-15888150D01*
X16874730Y-15697674D02*
X16893777Y-15688150D01*
X16893777Y-15688150D02*
X16931873Y-15688150D01*
X16931873Y-15688150D02*
X16950920Y-15697674D01*
X16950920Y-15697674D02*
X16960444Y-15707198D01*
X16960444Y-15707198D02*
X16969968Y-15726246D01*
X16969968Y-15726246D02*
X16969968Y-15783388D01*
X16969968Y-15783388D02*
X16960444Y-15802436D01*
X16960444Y-15802436D02*
X16950920Y-15811960D01*
X16950920Y-15811960D02*
X16931873Y-15821484D01*
X16931873Y-15821484D02*
X16893777Y-15821484D01*
X16893777Y-15821484D02*
X16874730Y-15811960D01*
X17084254Y-15821484D02*
X17065206Y-15811960D01*
X17065206Y-15811960D02*
X17055682Y-15792912D01*
X17055682Y-15792912D02*
X17055682Y-15621484D01*
X17246158Y-15821484D02*
X17246158Y-15716722D01*
X17246158Y-15716722D02*
X17236635Y-15697674D01*
X17236635Y-15697674D02*
X17217587Y-15688150D01*
X17217587Y-15688150D02*
X17179492Y-15688150D01*
X17179492Y-15688150D02*
X17160444Y-15697674D01*
X17246158Y-15811960D02*
X17227111Y-15821484D01*
X17227111Y-15821484D02*
X17179492Y-15821484D01*
X17179492Y-15821484D02*
X17160444Y-15811960D01*
X17160444Y-15811960D02*
X17150920Y-15792912D01*
X17150920Y-15792912D02*
X17150920Y-15773865D01*
X17150920Y-15773865D02*
X17160444Y-15754817D01*
X17160444Y-15754817D02*
X17179492Y-15745293D01*
X17179492Y-15745293D02*
X17227111Y-15745293D01*
X17227111Y-15745293D02*
X17246158Y-15735769D01*
X17312825Y-15688150D02*
X17389015Y-15688150D01*
X17341396Y-15621484D02*
X17341396Y-15792912D01*
X17341396Y-15792912D02*
X17350920Y-15811960D01*
X17350920Y-15811960D02*
X17369968Y-15821484D01*
X17369968Y-15821484D02*
X17389015Y-15821484D01*
X17531873Y-15811960D02*
X17512825Y-15821484D01*
X17512825Y-15821484D02*
X17474730Y-15821484D01*
X17474730Y-15821484D02*
X17455682Y-15811960D01*
X17455682Y-15811960D02*
X17446158Y-15792912D01*
X17446158Y-15792912D02*
X17446158Y-15716722D01*
X17446158Y-15716722D02*
X17455682Y-15697674D01*
X17455682Y-15697674D02*
X17474730Y-15688150D01*
X17474730Y-15688150D02*
X17512825Y-15688150D01*
X17512825Y-15688150D02*
X17531873Y-15697674D01*
X17531873Y-15697674D02*
X17541396Y-15716722D01*
X17541396Y-15716722D02*
X17541396Y-15735769D01*
X17541396Y-15735769D02*
X17446158Y-15754817D01*
X17712825Y-15821484D02*
X17712825Y-15621484D01*
X17712825Y-15811960D02*
X17693777Y-15821484D01*
X17693777Y-15821484D02*
X17655682Y-15821484D01*
X17655682Y-15821484D02*
X17636635Y-15811960D01*
X17636635Y-15811960D02*
X17627111Y-15802436D01*
X17627111Y-15802436D02*
X17617587Y-15783388D01*
X17617587Y-15783388D02*
X17617587Y-15726246D01*
X17617587Y-15726246D02*
X17627111Y-15707198D01*
X17627111Y-15707198D02*
X17636635Y-15697674D01*
X17636635Y-15697674D02*
X17655682Y-15688150D01*
X17655682Y-15688150D02*
X17693777Y-15688150D01*
X17693777Y-15688150D02*
X17712825Y-15697674D01*
X17789016Y-15897674D02*
X17798539Y-15888150D01*
X17798539Y-15888150D02*
X17817587Y-15859579D01*
X17817587Y-15859579D02*
X17827111Y-15840531D01*
X17827111Y-15840531D02*
X17836635Y-15811960D01*
X17836635Y-15811960D02*
X17846158Y-15764341D01*
X17846158Y-15764341D02*
X17846158Y-15726246D01*
X17846158Y-15726246D02*
X17836635Y-15678627D01*
X17836635Y-15678627D02*
X17827111Y-15650055D01*
X17827111Y-15650055D02*
X17817587Y-15631008D01*
X17817587Y-15631008D02*
X17798539Y-15602436D01*
X17798539Y-15602436D02*
X17789016Y-15592912D01*
M02*
