%TF.GenerationSoftware,KiCad,Pcbnew,8.0.2*%
%TF.CreationDate,2025-02-27T03:45:28+05:30*%
%TF.ProjectId,sra_dev_board_2024(CH340C),7372615f-6465-4765-9f62-6f6172645f32,rev?*%
%TF.SameCoordinates,Original*%
%TF.FileFunction,Paste,Top*%
%TF.FilePolarity,Positive*%
%FSLAX46Y46*%
G04 Gerber Fmt 4.6, Leading zero omitted, Abs format (unit mm)*
G04 Created by KiCad (PCBNEW 8.0.2) date 2025-02-27 03:45:28*
%MOMM*%
%LPD*%
G01*
G04 APERTURE LIST*
G04 Aperture macros list*
%AMRoundRect*
0 Rectangle with rounded corners*
0 $1 Rounding radius*
0 $2 $3 $4 $5 $6 $7 $8 $9 X,Y pos of 4 corners*
0 Add a 4 corners polygon primitive as box body*
4,1,4,$2,$3,$4,$5,$6,$7,$8,$9,$2,$3,0*
0 Add four circle primitives for the rounded corners*
1,1,$1+$1,$2,$3*
1,1,$1+$1,$4,$5*
1,1,$1+$1,$6,$7*
1,1,$1+$1,$8,$9*
0 Add four rect primitives between the rounded corners*
20,1,$1+$1,$2,$3,$4,$5,0*
20,1,$1+$1,$4,$5,$6,$7,0*
20,1,$1+$1,$6,$7,$8,$9,0*
20,1,$1+$1,$8,$9,$2,$3,0*%
G04 Aperture macros list end*
%ADD10RoundRect,0.250000X-0.262500X-0.450000X0.262500X-0.450000X0.262500X0.450000X-0.262500X0.450000X0*%
%ADD11RoundRect,0.250000X0.450000X-0.262500X0.450000X0.262500X-0.450000X0.262500X-0.450000X-0.262500X0*%
%ADD12RoundRect,0.218750X-0.256250X0.218750X-0.256250X-0.218750X0.256250X-0.218750X0.256250X0.218750X0*%
%ADD13RoundRect,0.250000X0.250000X0.475000X-0.250000X0.475000X-0.250000X-0.475000X0.250000X-0.475000X0*%
%ADD14R,1.600000X1.400000*%
%ADD15R,0.900000X2.000000*%
%ADD16RoundRect,0.200000X-0.200000X-0.275000X0.200000X-0.275000X0.200000X0.275000X-0.200000X0.275000X0*%
%ADD17RoundRect,0.250000X-1.000000X-0.650000X1.000000X-0.650000X1.000000X0.650000X-1.000000X0.650000X0*%
%ADD18RoundRect,0.200000X0.275000X-0.200000X0.275000X0.200000X-0.275000X0.200000X-0.275000X-0.200000X0*%
%ADD19RoundRect,0.250000X-0.250000X-0.475000X0.250000X-0.475000X0.250000X0.475000X-0.250000X0.475000X0*%
%ADD20RoundRect,0.250000X-1.000000X-0.900000X1.000000X-0.900000X1.000000X0.900000X-1.000000X0.900000X0*%
%ADD21RoundRect,0.250000X-2.050000X-0.300000X2.050000X-0.300000X2.050000X0.300000X-2.050000X0.300000X0*%
%ADD22RoundRect,0.250000X-2.025000X-2.375000X2.025000X-2.375000X2.025000X2.375000X-2.025000X2.375000X0*%
%ADD23RoundRect,0.218750X0.218750X0.256250X-0.218750X0.256250X-0.218750X-0.256250X0.218750X-0.256250X0*%
%ADD24RoundRect,0.150000X-0.825000X-0.150000X0.825000X-0.150000X0.825000X0.150000X-0.825000X0.150000X0*%
%ADD25RoundRect,0.150000X-0.587500X-0.150000X0.587500X-0.150000X0.587500X0.150000X-0.587500X0.150000X0*%
%ADD26RoundRect,0.200000X-0.200000X-0.800000X0.200000X-0.800000X0.200000X0.800000X-0.200000X0.800000X0*%
%ADD27RoundRect,0.250000X1.000000X0.650000X-1.000000X0.650000X-1.000000X-0.650000X1.000000X-0.650000X0*%
%ADD28RoundRect,0.250000X0.650000X-1.000000X0.650000X1.000000X-0.650000X1.000000X-0.650000X-1.000000X0*%
%ADD29R,1.450000X0.600000*%
%ADD30R,1.450000X0.300000*%
%ADD31R,2.700000X3.600000*%
%ADD32RoundRect,0.200000X0.200000X0.800000X-0.200000X0.800000X-0.200000X-0.800000X0.200000X-0.800000X0*%
%ADD33R,2.000000X0.900000*%
%ADD34R,0.900000X0.900000*%
%ADD35RoundRect,0.250000X-1.500000X-0.550000X1.500000X-0.550000X1.500000X0.550000X-1.500000X0.550000X0*%
%ADD36RoundRect,0.250000X-0.900000X1.000000X-0.900000X-1.000000X0.900000X-1.000000X0.900000X1.000000X0*%
%ADD37RoundRect,0.250000X-1.500000X-1.000000X1.500000X-1.000000X1.500000X1.000000X-1.500000X1.000000X0*%
%ADD38RoundRect,0.218750X0.256250X-0.218750X0.256250X0.218750X-0.256250X0.218750X-0.256250X-0.218750X0*%
%ADD39RoundRect,0.375000X-0.625000X-0.375000X0.625000X-0.375000X0.625000X0.375000X-0.625000X0.375000X0*%
%ADD40RoundRect,0.500000X-0.500000X-1.400000X0.500000X-1.400000X0.500000X1.400000X-0.500000X1.400000X0*%
G04 APERTURE END LIST*
D10*
%TO.C,R5*%
X140915000Y-59970000D03*
X142740000Y-59970000D03*
%TD*%
%TO.C,R3*%
X135907500Y-64760000D03*
X137732500Y-64760000D03*
%TD*%
D11*
%TO.C,R25*%
X134300000Y-115075000D03*
X134300000Y-113250000D03*
%TD*%
D12*
%TO.C,D4*%
X162570000Y-79487500D03*
X162570000Y-81062500D03*
%TD*%
D10*
%TO.C,R4*%
X145625000Y-70650000D03*
X147450000Y-70650000D03*
%TD*%
D13*
%TO.C,C5*%
X147490000Y-65010000D03*
X145590000Y-65010000D03*
%TD*%
D14*
%TO.C,SW6*%
X160520000Y-69640000D03*
X167720000Y-69640000D03*
X160520000Y-66640000D03*
X167720000Y-66640000D03*
%TD*%
D15*
%TO.C,*%
X132080000Y-102170000D03*
%TD*%
D16*
%TO.C,R8*%
X175675000Y-96440000D03*
X177325000Y-96440000D03*
%TD*%
%TO.C,R23*%
X181115000Y-142517500D03*
X182765000Y-142517500D03*
%TD*%
D12*
%TO.C,D5*%
X165030000Y-79505000D03*
X165030000Y-81080000D03*
%TD*%
D17*
%TO.C,D14*%
X153310000Y-112290000D03*
X157310000Y-112290000D03*
%TD*%
D15*
%TO.C,*%
X132070000Y-84690000D03*
%TD*%
D10*
%TO.C,R20*%
X123887500Y-112400000D03*
X125712500Y-112400000D03*
%TD*%
D18*
%TO.C,R21*%
X132340000Y-120347500D03*
X132340000Y-118697500D03*
%TD*%
D19*
%TO.C,C1*%
X145620000Y-59980000D03*
X147520000Y-59980000D03*
%TD*%
D20*
%TO.C,D15*%
X153352500Y-119572500D03*
X157652500Y-119572500D03*
%TD*%
D21*
%TO.C,U4*%
X154715000Y-125590000D03*
X154715000Y-127290000D03*
X154715000Y-128990000D03*
D22*
X161440000Y-126215000D03*
X161440000Y-131765000D03*
X166290000Y-126215000D03*
X166290000Y-131765000D03*
D21*
X154715000Y-130690000D03*
X154715000Y-132390000D03*
%TD*%
D23*
%TO.C,D12*%
X179597500Y-142540000D03*
X178022500Y-142540000D03*
%TD*%
%TO.C,D9*%
X122187500Y-112400000D03*
X120612500Y-112400000D03*
%TD*%
D10*
%TO.C,R1*%
X145657500Y-62760000D03*
X147482500Y-62760000D03*
%TD*%
D23*
%TO.C,D11*%
X120227500Y-60690000D03*
X118652500Y-60690000D03*
%TD*%
D18*
%TO.C,R16*%
X165080000Y-77845000D03*
X165080000Y-76195000D03*
%TD*%
D13*
%TO.C,C3*%
X132530000Y-59340000D03*
X130630000Y-59340000D03*
%TD*%
D15*
%TO.C,*%
X133350000Y-102170000D03*
%TD*%
%TO.C,*%
X130810000Y-102170000D03*
%TD*%
%TO.C,*%
X129540000Y-102170000D03*
%TD*%
D19*
%TO.C,C11*%
X177690000Y-118570000D03*
X179590000Y-118570000D03*
%TD*%
D13*
%TO.C,C2*%
X128280000Y-59330000D03*
X126380000Y-59330000D03*
%TD*%
D24*
%TO.C,U2*%
X126840000Y-62750000D03*
X126840000Y-64020000D03*
X126840000Y-65290000D03*
X126840000Y-66560000D03*
X126840000Y-67830000D03*
X126840000Y-69100000D03*
X126840000Y-70370000D03*
X126840000Y-71640000D03*
X131790000Y-71640000D03*
X131790000Y-70370000D03*
X131790000Y-69100000D03*
X131790000Y-67830000D03*
X131790000Y-66560000D03*
X131790000Y-65290000D03*
X131790000Y-64020000D03*
X131790000Y-62750000D03*
%TD*%
D18*
%TO.C,R18*%
X170050000Y-77810000D03*
X170050000Y-76160000D03*
%TD*%
D13*
%TO.C,C9*%
X165520000Y-114990000D03*
X163620000Y-114990000D03*
%TD*%
D15*
%TO.C,*%
X129530000Y-84690000D03*
%TD*%
D12*
%TO.C,D2*%
X157530000Y-79492500D03*
X157530000Y-81067500D03*
%TD*%
D25*
%TO.C,Q2*%
X140942500Y-67757500D03*
X140942500Y-69657500D03*
X142817500Y-68707500D03*
%TD*%
D10*
%TO.C,R7*%
X121607500Y-69970000D03*
X123432500Y-69970000D03*
%TD*%
D15*
%TO.C,*%
X134620000Y-102170000D03*
%TD*%
D19*
%TO.C,C10*%
X177710000Y-113740000D03*
X179610000Y-113740000D03*
%TD*%
D11*
%TO.C,R24*%
X131980000Y-115052500D03*
X131980000Y-113227500D03*
%TD*%
D15*
%TO.C,*%
X134610000Y-84690000D03*
%TD*%
%TO.C,*%
X130800000Y-84690000D03*
%TD*%
D26*
%TO.C,SW8*%
X134500000Y-60830000D03*
X138700000Y-60830000D03*
%TD*%
D27*
%TO.C,D13*%
X123327500Y-56970000D03*
X119327500Y-56970000D03*
%TD*%
D10*
%TO.C,R6*%
X121567500Y-64790000D03*
X123392500Y-64790000D03*
%TD*%
D12*
%TO.C,D1*%
X155020000Y-79527500D03*
X155020000Y-81102500D03*
%TD*%
%TO.C,D6*%
X167490000Y-79575000D03*
X167490000Y-81150000D03*
%TD*%
D14*
%TO.C,SW4*%
X150960000Y-69670000D03*
X158160000Y-69670000D03*
X150960000Y-66670000D03*
X158160000Y-66670000D03*
%TD*%
D16*
%TO.C,R22*%
X122435000Y-60690000D03*
X124085000Y-60690000D03*
%TD*%
D14*
%TO.C,SW5*%
X160550000Y-63990000D03*
X167750000Y-63990000D03*
X160550000Y-60990000D03*
X167750000Y-60990000D03*
%TD*%
D15*
%TO.C,*%
X133340000Y-84690000D03*
%TD*%
D28*
%TO.C,D17*%
X117200000Y-123430000D03*
X117200000Y-119430000D03*
%TD*%
D12*
%TO.C,D3*%
X159980000Y-79487500D03*
X159980000Y-81062500D03*
%TD*%
D29*
%TO.C,J20*%
X118715000Y-64170000D03*
X118715000Y-64970000D03*
D30*
X118715000Y-66170000D03*
X118715000Y-67170000D03*
X118715000Y-67670000D03*
X118715000Y-68670000D03*
D29*
X118715000Y-69870000D03*
X118715000Y-70670000D03*
X118715000Y-70670000D03*
X118715000Y-69870000D03*
D30*
X118715000Y-69170000D03*
X118715000Y-68170000D03*
X118715000Y-66670000D03*
X118715000Y-65670000D03*
D29*
X118715000Y-64970000D03*
X118715000Y-64170000D03*
%TD*%
D18*
%TO.C,R12*%
X155020000Y-77885000D03*
X155020000Y-76235000D03*
%TD*%
D12*
%TO.C,D8*%
X172530000Y-79535000D03*
X172530000Y-81110000D03*
%TD*%
D13*
%TO.C,C8*%
X165570000Y-117687500D03*
X163670000Y-117687500D03*
%TD*%
D31*
%TO.C,L1*%
X146660000Y-118050000D03*
X138360000Y-118050000D03*
%TD*%
D32*
%TO.C,SW7*%
X138710000Y-70550000D03*
X134510000Y-70550000D03*
%TD*%
D14*
%TO.C,SW3*%
X150960000Y-63970000D03*
X158160000Y-63970000D03*
X150960000Y-60970000D03*
X158160000Y-60970000D03*
%TD*%
D10*
%TO.C,R2*%
X135907500Y-66840000D03*
X137732500Y-66840000D03*
%TD*%
D15*
%TO.C,U1*%
X111750000Y-102180000D03*
X113020000Y-102180000D03*
X114290000Y-102180000D03*
X115560000Y-102180000D03*
X116830000Y-102180000D03*
X118100000Y-102180000D03*
X119370000Y-102180000D03*
X120640000Y-102180000D03*
X121910000Y-102180000D03*
X123180000Y-102180000D03*
X124450000Y-102180000D03*
X125720000Y-102180000D03*
X126990000Y-102180000D03*
X128260000Y-102180000D03*
D33*
X129510000Y-99145000D03*
X129510000Y-97875000D03*
X129510000Y-96605000D03*
X129510000Y-95335000D03*
X129510000Y-94065000D03*
X129510000Y-92795000D03*
X129510000Y-91525000D03*
X129510000Y-90255000D03*
X129510000Y-88985000D03*
X129510000Y-87715000D03*
D15*
X128260000Y-84680000D03*
X126990000Y-84680000D03*
X125720000Y-84680000D03*
X124450000Y-84680000D03*
X123180000Y-84680000D03*
X121910000Y-84680000D03*
X120640000Y-84680000D03*
X119370000Y-84680000D03*
X118100000Y-84680000D03*
X116830000Y-84680000D03*
X115560000Y-84680000D03*
X114290000Y-84680000D03*
X113020000Y-84680000D03*
X111750000Y-84680000D03*
D34*
X118070000Y-93530000D03*
X119470000Y-93530000D03*
X120870000Y-93530000D03*
X118070000Y-94930000D03*
X119470000Y-94930000D03*
X120870000Y-94930000D03*
X118070000Y-96330000D03*
X119470000Y-96330000D03*
X120870000Y-96330000D03*
%TD*%
D35*
%TO.C,C6*%
X143980000Y-128680000D03*
X149380000Y-128680000D03*
%TD*%
D36*
%TO.C,D16*%
X117720000Y-128360000D03*
X117720000Y-132660000D03*
%TD*%
D18*
%TO.C,R14*%
X160090000Y-77900000D03*
X160090000Y-76250000D03*
%TD*%
%TO.C,R17*%
X167530000Y-77850000D03*
X167530000Y-76200000D03*
%TD*%
%TO.C,R13*%
X157580000Y-77900000D03*
X157580000Y-76250000D03*
%TD*%
D16*
%TO.C,R10*%
X180400000Y-91340000D03*
X182050000Y-91340000D03*
%TD*%
D37*
%TO.C,C7*%
X133082500Y-128460000D03*
X139582500Y-128460000D03*
%TD*%
D18*
%TO.C,R19*%
X172500000Y-77775000D03*
X172500000Y-76125000D03*
%TD*%
D38*
%TO.C,D10*%
X134190000Y-120310000D03*
X134190000Y-118735000D03*
%TD*%
D25*
%TO.C,Q1*%
X140902500Y-63090000D03*
X140902500Y-64990000D03*
X142777500Y-64040000D03*
%TD*%
D18*
%TO.C,R15*%
X162590000Y-77890000D03*
X162590000Y-76240000D03*
%TD*%
D19*
%TO.C,C4*%
X145600000Y-68220000D03*
X147500000Y-68220000D03*
%TD*%
D16*
%TO.C,R11*%
X180280000Y-96450000D03*
X181930000Y-96450000D03*
%TD*%
%TO.C,R9*%
X175700000Y-91350000D03*
X177350000Y-91350000D03*
%TD*%
D12*
%TO.C,D7*%
X170040000Y-79545000D03*
X170040000Y-81120000D03*
%TD*%
D39*
%TO.C,U5*%
X168180000Y-114017500D03*
X168180000Y-116317500D03*
D40*
X174480000Y-116317500D03*
D39*
X168180000Y-118617500D03*
%TD*%
M02*
